<svg xmlns="http://www.w3.org/2000/svg" viewBox="0 0 400 300" opacity="0.07"><rect width="100%" height="100%" fill="#fff"/><g fill="none" stroke-width="2"><g fill="currentColor"><path d="M225.3 81.8a2.1 2.1 0 0 0 .3-3 2.2 2.2 0 0 0-3-.4 2.1 2.1 0 0 0-.4 3 2.2 2.2 0 0 0 3 .4"/><path d="M239.2 109.2c-1 .1-4.2 1.6-5.3 1.7-2.3.2-3.6-1-2.7-2.7.5-.8 3-3 3.3-3.8 1-1.9-2.2-3.3-3.1-1.4-.4.8-.6 4-1 4.9-.7 1.4-2.7 1.6-3.5.5-.6-.8-1.5-4.2-2-4.9-1.3-1.7-4.2.1-2.9 1.9.5.7 3.7 2.7 4 4.4-3.8-.7-6.1-4.4-7.3-7.2l2-3.2c2.8 1.5 6.1 1.1 8.3-1.4l.5-.6a5.9 5.9 0 0 0 3.2 1c1.3 0 2.6-.4 3.7-1.3a5.7 5.7 0 0 0 .9-8c4.4-5 8.3-10.9 6-13.8-2.4-3-9-.3-15 2.9a5.9 5.9 0 0 0-8-.8 5.7 5.7 0 0 0-2.2 4c-.1.9 0 1.8.4 2.6l-.7.4c-3 1.6-4 5-3 8a46.8 46.8 0 0 1-10 4c-2.7-.2-9.3-1.3-5.2-7.7 1.3 1.2 1.7 4.7 2 5.4 1.1 2.1 4.2.4 3-1.7-.3-.8-3-3-3.5-4-.6-1 .5-2.8 2.2-2.8.9 0 4 1.2 4.8 1.2 2.2 0 2.3-3.4.2-3.4-1 0-4 1.3-5 1.3-2 .1-2.4-1.5-1.2-3.5.6-1 3.5-3.2 4-4 1.2-2-1.6-3.7-3-1.6-.4.8-1 4.2-1.7 5.2-1.2 2-2.9 2.4-3.7.6-.4-.8-.7-4.1-1.1-4.9-1-2-4-.2-3 1.7.4.8 3 2.9 3.4 3.6.7 1.5-.4 3.2-1.6 3.2-1.1 0-4.4-1.2-5.2-1.2-2.2 0-2.4 3.4-.2 3.4.8 0 4-1.2 5.7-.8-1.4 1.9-6.4 9.2.4 13.2a85 85 0 0 0-25 17.8c-2.4.6-6.1.5-5.7-5.9 1.7.3 3.9 3.2 4.6 3.6 2 1.3 3.7-1.7 1.7-3-.8-.4-4.1-1-5-1.6-1.1-.6-1-2.7.3-3.5.8-.5 4-1 4.8-1.4 1.9-1.1.3-4.1-1.6-3-.7.4-2.8 3.1-3.5 3.6-1.7 1.1-3 0-2.9-2.4 0-1.2 1.4-4.5 1.4-5.4 0-2.5-3.2-2.5-3.3 0 0 .9 1.2 4.2 1.1 5.4 0 2.3-1.3 3.5-2.9 2.4-.7-.5-2.7-3.2-3.4-3.7-1.8-1.2-3.6 1.9-1.7 3 .7.5 4 1 4.7 1.5 1.4.8 1.3 2.9.2 3.5-.9.5-4.3 1.1-5 1.6-2 1-.3 4.1 1.5 3 .7-.4 2.7-3 4.4-3.5-.3 2.2-.8 10 5.8 11-6.1 8-13.3 29.7 11.7 38.8 24.3 9 56-6.3 62-35.3 0 0-13.5 36-46.6 29-10-2.2-23.1-8.8-10.8-18.3 1.6-1.3 3.4-2.4 5.2-3.6 1.6 6.6 8.5 7.4 12.2 7.4-.2 1.7-3.2 4-3.7 4.7-1.2 2 1.8 3.7 3 1.7.5-.7 1.1-4.1 1.7-5 .6-1.1 2.7-1 3.5.4.5.7 1 4 1.4 4.7 1 1.9 4.1.3 3-1.5-.4-.8-3.1-2.9-3.6-3.6-1.1-1.7 0-2.9 2.4-2.8 1.1 0 4.5 1.3 5.4 1.3 2.5 0 2.5-3.2 0-3.3-1 0-4.2 1.2-5.4 1.1-2.4 0-3.5-1.3-2.4-2.9.5-.7 3.2-2.7 3.7-3.4 1.1-1.8-2-3.6-3-1.7-.5.7-1 4-1.5 4.7-.8 1.4-2.9 1.3-3.5.2-.6-.9-1.1-4.3-1.6-5-1-2-4.1-.3-3 1.5.4.7 3.3 3 3.6 4.8-3.3-.5-5-2.3-5.7-4.5-.2-.7-.2-1.8.7-3a51.4 51.4 0 0 0 19.6-20c2 5.6 8 5.4 11.6 4.7 0 1.8-2.9 4.4-3.2 5.2-1.1 2 2 3.5 3.1 1.4.4-.8.7-4.2 1.1-5.2.6-1.1 2.7-1.2 3.6 0 .5.8 1.3 4 1.8 4.7 1.3 1.8 4.2-.1 2.9-1.9-.5-.7-3.4-2.5-4-3.2-1.2-1.5-.2-2.8 2.2-3 1.1 0 4.6.9 5.5.8 2.4-.2 2.1-3.4-.3-3.3m-33.9 47.5a24.4 24.4 0 0 0 3.9-.6c-.7 2.2-.4 2.2 2 3.2-1.3.6-2.6 1-4 1.5-3.7-1.5-4-2-1.9-4.1m-14.8-1.4 4 1c-2.4 2.9 1.9 2.8 2.8 6.4-3.7.6-5.5.2-5.5.2-.9-2.9-5.1-4.8-1.3-7.6m-12-7.1c.7 1.3 2 2.4 3.6 3.4-6.4 3.5-5.6 1.3-3.3 8.9 0 0-3.6-1-5.7-2.6-1.7-10.7 1.7-4.6 5.3-9.7m-1.2-3c-11.5-10.3-6.1-2.3-14.9-1.3a19.7 19.7 0 0 1-.3-6c4 1.7 7.6-11.5 16.4 2-1.4 2-1.7 3.7-1.2 5.2m6.2-10c-13.4-8.6 2.1-7.9-15.6-12.2a58.4 58.4 0 0 1 4-4.7c24.4 2.5 3.1 4.3 17 13.4a73.7 73.7 0 0 0-5.4 3.5m13-8.3c-13.7-12 4.7-16-13.5-18 0 0 2.7-2.3 5.2-3.5 26.5 5 3.6 8.8 13.5 17.7 0 0-2 2.2-5.2 3.8m17.6-18.1s-1.6 3.4-4.3 6.3c-4.7-7.8 5.1-9.8-10.4-15.8l5.7-2c6.1 5.3 10-.3 9 11.5M235.4 96a4.4 4.4 0 0 1-2.7 1 4.4 4.4 0 0 1-3.4-1.7 4.3 4.3 0 0 1 .6-6 4.4 4.4 0 0 1 2.8-1c1.2 0 2.5.6 3.3 1.6a4.3 4.3 0 0 1-.6 6m-14.2-17.3a4.4 4.4 0 0 1 2.7-1 4.4 4.4 0 0 1 3.4 1.6 4.2 4.2 0 0 1-.7 6 4.3 4.3 0 0 1-2.7 1 4.4 4.4 0 0 1-3.4-1.6 4.2 4.2 0 0 1 .7-6"/><path d="M231.1 92.8a2.1 2.1 0 0 0-.3 3 2.2 2.2 0 0 0 3 .4 2.1 2.1 0 0 0 .4-3 2.2 2.2 0 0 0-3.1-.4"/></g><g class="clone" fill="currentColor"><path d="M625.3 81.8a2.1 2.1 0 0 0 .3-3 2.2 2.2 0 0 0-3-.4 2.1 2.1 0 0 0-.4 3 2.2 2.2 0 0 0 3 .4"/><path d="M639.2 109.2c-1 .1-4.2 1.6-5.3 1.7-2.3.2-3.6-1-2.7-2.7.5-.8 3-3 3.3-3.8 1-1.9-2.2-3.3-3.1-1.4-.4.8-.6 4-1 4.9-.7 1.4-2.7 1.6-3.5.5-.6-.8-1.5-4.2-2-4.9-1.3-1.7-4.2.1-2.9 1.9.5.7 3.7 2.7 4 4.4-3.8-.7-6.1-4.4-7.3-7.2l2-3.2c2.8 1.5 6.1 1.1 8.3-1.4l.5-.6a5.9 5.9 0 0 0 3.2 1c1.3 0 2.6-.4 3.7-1.3a5.7 5.7 0 0 0 .9-8c4.4-5 8.3-10.9 6-13.8-2.4-3-9-.3-15 2.9a5.9 5.9 0 0 0-8-.8 5.7 5.7 0 0 0-2.2 4c-.1.9 0 1.8.4 2.6l-.7.4c-3 1.6-4 5-3 8a46.8 46.8 0 0 1-10 4c-2.7-.2-9.3-1.3-5.2-7.7 1.3 1.2 1.7 4.7 2 5.4 1.1 2.1 4.2.4 3-1.7-.3-.8-3-3-3.5-4-.6-1 .5-2.8 2.2-2.8.9 0 4 1.2 4.8 1.2 2.2 0 2.3-3.4.2-3.4-1 0-4 1.3-5 1.3-2 .1-2.4-1.5-1.2-3.5.6-1 3.5-3.2 4-4 1.2-2-1.6-3.7-3-1.6-.4.8-1 4.2-1.7 5.2-1.2 2-2.9 2.4-3.7.6-.4-.8-.7-4.1-1.1-4.9-1-2-4-.2-3 1.7.4.8 3 2.9 3.4 3.6.7 1.5-.4 3.2-1.6 3.2-1.1 0-4.4-1.2-5.2-1.2-2.2 0-2.4 3.4-.2 3.4.8 0 4-1.2 5.7-.8-1.4 1.9-6.4 9.2.4 13.2a85 85 0 0 0-25 17.8c-2.4.6-6.1.5-5.7-5.9 1.7.3 3.9 3.2 4.6 3.6 2 1.3 3.7-1.7 1.7-3-.8-.4-4.1-1-5-1.6-1.1-.6-1-2.7.3-3.5.8-.5 4-1 4.8-1.4 1.9-1.1.3-4.1-1.6-3-.7.4-2.8 3.1-3.5 3.6-1.7 1.1-3 0-2.9-2.4 0-1.2 1.4-4.5 1.4-5.4 0-2.5-3.2-2.5-3.3 0 0 .9 1.2 4.2 1.1 5.4 0 2.3-1.3 3.5-2.9 2.4-.7-.5-2.7-3.2-3.4-3.7-1.8-1.2-3.6 1.9-1.7 3 .7.5 4 1 4.7 1.5 1.4.8 1.3 2.9.2 3.5-.9.5-4.3 1.1-5 1.6-2 1-.3 4.1 1.5 3 .7-.4 2.7-3 4.4-3.5-.3 2.2-.8 10 5.8 11-6.1 8-13.3 29.7 11.7 38.8 24.3 9 56-6.3 62-35.3 0 0-13.5 36-46.6 29-10-2.2-23.1-8.8-10.8-18.3 1.6-1.3 3.4-2.4 5.2-3.6 1.6 6.6 8.5 7.4 12.2 7.4-.2 1.7-3.2 4-3.7 4.7-1.2 2 1.8 3.7 3 1.7.5-.7 1.1-4.1 1.7-5 .6-1.1 2.7-1 3.5.4.5.7 1 4 1.4 4.7 1 1.9 4.1.3 3-1.5-.4-.8-3.1-2.9-3.6-3.6-1.1-1.7 0-2.9 2.4-2.8 1.1 0 4.5 1.3 5.4 1.3 2.5 0 2.5-3.2 0-3.3-1 0-4.2 1.2-5.4 1.1-2.4 0-3.5-1.3-2.4-2.9.5-.7 3.2-2.7 3.7-3.4 1.1-1.8-2-3.6-3-1.7-.5.7-1 4-1.5 4.7-.8 1.4-2.9 1.3-3.5.2-.6-.9-1.1-4.3-1.6-5-1-2-4.1-.3-3 1.5.4.7 3.3 3 3.6 4.8-3.3-.5-5-2.3-5.7-4.5-.2-.7-.2-1.8.7-3a51.4 51.4 0 0 0 19.6-20c2 5.6 8 5.4 11.6 4.7 0 1.8-2.9 4.4-3.2 5.2-1.1 2 2 3.5 3.1 1.4.4-.8.7-4.2 1.1-5.2.6-1.1 2.7-1.2 3.6 0 .5.8 1.3 4 1.8 4.7 1.3 1.8 4.2-.1 2.9-1.9-.5-.7-3.4-2.5-4-3.2-1.2-1.5-.2-2.8 2.2-3 1.1 0 4.6.9 5.5.8 2.4-.2 2.1-3.4-.3-3.3m-33.9 47.5a24.4 24.4 0 0 0 3.9-.6c-.7 2.2-.4 2.2 2 3.2-1.3.6-2.6 1-4 1.5-3.7-1.5-4-2-1.9-4.1m-14.8-1.4 4 1c-2.4 2.9 1.9 2.8 2.8 6.4-3.7.6-5.5.2-5.5.2-.9-2.9-5.1-4.8-1.3-7.6m-12-7.1c.7 1.3 2 2.4 3.6 3.4-6.4 3.5-5.6 1.3-3.3 8.9 0 0-3.6-1-5.7-2.6-1.7-10.7 1.7-4.6 5.3-9.7m-1.2-3c-11.5-10.3-6.1-2.3-14.9-1.3a19.7 19.7 0 0 1-.3-6c4 1.7 7.6-11.5 16.4 2-1.4 2-1.7 3.7-1.2 5.2m6.2-10c-13.4-8.6 2.1-7.9-15.6-12.2a58.4 58.4 0 0 1 4-4.7c24.4 2.5 3.1 4.3 17 13.4a73.7 73.7 0 0 0-5.4 3.5m13-8.3c-13.7-12 4.7-16-13.5-18 0 0 2.7-2.3 5.2-3.5 26.5 5 3.6 8.8 13.5 17.7 0 0-2 2.2-5.2 3.8m17.6-18.1s-1.6 3.4-4.3 6.3c-4.7-7.8 5.1-9.8-10.4-15.8l5.7-2c6.1 5.3 10-.3 9 11.5M635.4 96a4.4 4.4 0 0 1-2.7 1 4.4 4.4 0 0 1-3.4-1.7 4.3 4.3 0 0 1 .6-6 4.4 4.4 0 0 1 2.8-1c1.2 0 2.5.6 3.3 1.6a4.3 4.3 0 0 1-.6 6m-14.2-17.3a4.4 4.4 0 0 1 2.7-1 4.4 4.4 0 0 1 3.4 1.6 4.2 4.2 0 0 1-.7 6 4.3 4.3 0 0 1-2.7 1 4.4 4.4 0 0 1-3.4-1.6 4.2 4.2 0 0 1 .7-6"/><path d="M631.1 92.8a2.1 2.1 0 0 0-.3 3 2.2 2.2 0 0 0 3 .4 2.1 2.1 0 0 0 .4-3 2.2 2.2 0 0 0-3.1-.4"/></g><g class="clone" fill="currentColor"><path d="M225.3 381.8a2.1 2.1 0 0 0 .3-3 2.2 2.2 0 0 0-3-.4 2.1 2.1 0 0 0-.4 3 2.2 2.2 0 0 0 3 .4"/><path d="M239.2 409.2c-1 .1-4.2 1.6-5.3 1.7-2.3.2-3.6-1-2.7-2.7.5-.8 3-3 3.3-3.8 1-1.9-2.2-3.3-3.1-1.4-.4.8-.6 4-1 4.9-.7 1.4-2.7 1.6-3.5.5-.6-.8-1.5-4.2-2-4.9-1.3-1.7-4.2.1-2.9 1.9.5.7 3.7 2.7 4 4.4-3.8-.7-6.1-4.4-7.3-7.2l2-3.2c2.8 1.5 6.1 1.1 8.3-1.4l.5-.6a5.9 5.9 0 0 0 3.2 1c1.3 0 2.6-.4 3.7-1.3a5.7 5.7 0 0 0 .9-8c4.4-5 8.3-10.9 6-13.8-2.4-3-9-.3-15 2.9a5.9 5.9 0 0 0-8-.8 5.7 5.7 0 0 0-2.2 4c-.1.9 0 1.8.4 2.6l-.7.4c-3 1.6-4 5-3 8a46.8 46.8 0 0 1-10 4c-2.7-.2-9.3-1.3-5.2-7.7 1.3 1.2 1.7 4.7 2 5.4 1.1 2.1 4.2.4 3-1.7-.3-.8-3-3-3.5-4-.6-1 .5-2.8 2.2-2.8.9 0 4 1.2 4.8 1.2 2.2 0 2.3-3.4.2-3.4-1 0-4 1.3-5 1.3-2 .1-2.4-1.5-1.2-3.5.6-1 3.5-3.2 4-4 1.2-2-1.6-3.7-3-1.6-.4.8-1 4.2-1.7 5.2-1.2 2-2.9 2.4-3.7.6-.4-.8-.7-4.1-1.1-4.9-1-2-4-.2-3 1.7.4.8 3 2.9 3.4 3.6.7 1.5-.4 3.2-1.6 3.2-1.1 0-4.4-1.2-5.2-1.2-2.2 0-2.4 3.4-.2 3.4.8 0 4-1.2 5.7-.8-1.4 1.9-6.4 9.2.4 13.2a85 85 0 0 0-25 17.8c-2.4.6-6.1.5-5.7-5.9 1.7.3 3.9 3.2 4.6 3.6 2 1.3 3.7-1.7 1.7-3-.8-.4-4.1-1-5-1.6-1.1-.6-1-2.7.3-3.5.8-.5 4-1 4.8-1.4 1.9-1.1.3-4.1-1.6-3-.7.4-2.8 3.1-3.5 3.6-1.7 1.1-3 0-2.9-2.4 0-1.2 1.4-4.5 1.4-5.4 0-2.5-3.2-2.5-3.3 0 0 .9 1.2 4.2 1.1 5.4 0 2.3-1.3 3.5-2.9 2.4-.7-.5-2.7-3.2-3.4-3.7-1.8-1.2-3.6 1.9-1.7 3 .7.5 4 1 4.7 1.5 1.4.8 1.3 2.9.2 3.5-.9.5-4.3 1.1-5 1.6-2 1-.3 4.1 1.5 3 .7-.4 2.7-3 4.4-3.5-.3 2.2-.8 10 5.8 11-6.1 8-13.3 29.7 11.7 38.8 24.3 9 56-6.3 62-35.3 0 0-13.5 36-46.6 29-10-2.2-23.1-8.8-10.8-18.3 1.6-1.3 3.4-2.4 5.2-3.6 1.6 6.6 8.5 7.4 12.2 7.4-.2 1.7-3.2 4-3.7 4.7-1.2 2 1.8 3.7 3 1.7.5-.7 1.1-4.1 1.7-5 .6-1.1 2.7-1 3.5.4.5.7 1 4 1.4 4.7 1 1.9 4.1.3 3-1.5-.4-.8-3.1-2.9-3.6-3.6-1.1-1.7 0-2.9 2.4-2.8 1.1 0 4.5 1.3 5.4 1.3 2.5 0 2.5-3.2 0-3.3-1 0-4.2 1.2-5.4 1.1-2.4 0-3.5-1.3-2.4-2.9.5-.7 3.2-2.7 3.7-3.4 1.1-1.8-2-3.6-3-1.7-.5.7-1 4-1.5 4.7-.8 1.4-2.9 1.3-3.5.2-.6-.9-1.1-4.3-1.6-5-1-2-4.1-.3-3 1.5.4.7 3.3 3 3.6 4.8-3.3-.5-5-2.3-5.7-4.5-.2-.7-.2-1.8.7-3a51.4 51.4 0 0 0 19.6-20c2 5.6 8 5.4 11.6 4.7 0 1.8-2.9 4.4-3.2 5.2-1.1 2 2 3.5 3.1 1.4.4-.8.7-4.2 1.1-5.2.6-1.1 2.7-1.2 3.6 0 .5.8 1.3 4 1.8 4.7 1.3 1.8 4.2-.1 2.9-1.9-.5-.7-3.4-2.5-4-3.2-1.2-1.5-.2-2.8 2.2-3 1.1 0 4.6.9 5.5.8 2.4-.2 2.1-3.4-.3-3.3m-33.9 47.5a24.4 24.4 0 0 0 3.9-.6c-.7 2.2-.4 2.2 2 3.2-1.3.6-2.6 1-4 1.5-3.7-1.5-4-2-1.9-4.1m-14.8-1.4 4 1c-2.4 2.9 1.9 2.8 2.8 6.4-3.7.6-5.5.2-5.5.2-.9-2.9-5.1-4.8-1.3-7.6m-12-7.1c.7 1.3 2 2.4 3.6 3.4-6.4 3.5-5.6 1.3-3.3 8.9 0 0-3.6-1-5.7-2.6-1.7-10.7 1.7-4.6 5.3-9.7m-1.2-3c-11.5-10.3-6.1-2.3-14.9-1.3a19.7 19.7 0 0 1-.3-6c4 1.7 7.6-11.5 16.4 2-1.4 2-1.7 3.7-1.2 5.2m6.2-10c-13.4-8.6 2.1-7.9-15.6-12.2a58.4 58.4 0 0 1 4-4.7c24.4 2.5 3.1 4.3 17 13.4a73.7 73.7 0 0 0-5.4 3.5m13-8.3c-13.7-12 4.7-16-13.5-18 0 0 2.7-2.3 5.2-3.5 26.5 5 3.6 8.8 13.5 17.7 0 0-2 2.2-5.2 3.8m17.6-18.1s-1.6 3.4-4.3 6.3c-4.7-7.8 5.1-9.8-10.4-15.8l5.7-2c6.1 5.3 10-.3 9 11.5m21.4-12.7a4.4 4.4 0 0 1-2.7 1 4.4 4.4 0 0 1-3.4-1.7 4.3 4.3 0 0 1 .6-6 4.4 4.4 0 0 1 2.8-1c1.2 0 2.5.6 3.3 1.6a4.3 4.3 0 0 1-.6 6m-14.2-17.3a4.4 4.4 0 0 1 2.7-1 4.4 4.4 0 0 1 3.4 1.6 4.2 4.2 0 0 1-.7 6 4.3 4.3 0 0 1-2.7 1 4.4 4.4 0 0 1-3.4-1.6 4.2 4.2 0 0 1 .7-6"/><path d="M231.1 392.8a2.1 2.1 0 0 0-.3 3 2.2 2.2 0 0 0 3 .4 2.1 2.1 0 0 0 .4-3 2.2 2.2 0 0 0-3.1-.4"/></g><g class="clone" fill="currentColor"><path d="M625.3 381.8a2.1 2.1 0 0 0 .3-3 2.2 2.2 0 0 0-3-.4 2.1 2.1 0 0 0-.4 3 2.2 2.2 0 0 0 3 .4"/><path d="M639.2 409.2c-1 .1-4.2 1.6-5.3 1.7-2.3.2-3.6-1-2.7-2.7.5-.8 3-3 3.3-3.8 1-1.9-2.2-3.3-3.1-1.4-.4.8-.6 4-1 4.9-.7 1.4-2.7 1.6-3.5.5-.6-.8-1.5-4.2-2-4.9-1.3-1.7-4.2.1-2.9 1.9.5.7 3.7 2.7 4 4.4-3.8-.7-6.1-4.4-7.3-7.2l2-3.2c2.8 1.5 6.1 1.1 8.3-1.4l.5-.6a5.9 5.9 0 0 0 3.2 1c1.3 0 2.6-.4 3.7-1.3a5.7 5.7 0 0 0 .9-8c4.4-5 8.3-10.9 6-13.8-2.4-3-9-.3-15 2.9a5.9 5.9 0 0 0-8-.8 5.7 5.7 0 0 0-2.2 4c-.1.9 0 1.8.4 2.6l-.7.4c-3 1.6-4 5-3 8a46.8 46.8 0 0 1-10 4c-2.7-.2-9.3-1.3-5.2-7.7 1.3 1.2 1.7 4.7 2 5.4 1.1 2.1 4.2.4 3-1.7-.3-.8-3-3-3.5-4-.6-1 .5-2.8 2.2-2.8.9 0 4 1.2 4.8 1.2 2.2 0 2.3-3.4.2-3.4-1 0-4 1.3-5 1.3-2 .1-2.4-1.5-1.2-3.5.6-1 3.5-3.2 4-4 1.2-2-1.6-3.7-3-1.6-.4.8-1 4.2-1.7 5.2-1.2 2-2.9 2.4-3.7.6-.4-.8-.7-4.1-1.1-4.9-1-2-4-.2-3 1.7.4.8 3 2.9 3.4 3.6.7 1.5-.4 3.2-1.6 3.2-1.1 0-4.4-1.2-5.2-1.2-2.2 0-2.4 3.4-.2 3.4.8 0 4-1.2 5.7-.8-1.4 1.9-6.4 9.2.4 13.2a85 85 0 0 0-25 17.8c-2.4.6-6.1.5-5.7-5.9 1.7.3 3.9 3.2 4.6 3.6 2 1.3 3.7-1.7 1.7-3-.8-.4-4.1-1-5-1.6-1.1-.6-1-2.7.3-3.5.8-.5 4-1 4.8-1.4 1.9-1.1.3-4.1-1.6-3-.7.4-2.8 3.1-3.5 3.6-1.7 1.1-3 0-2.9-2.4 0-1.2 1.4-4.5 1.4-5.4 0-2.5-3.2-2.5-3.3 0 0 .9 1.2 4.2 1.1 5.4 0 2.3-1.3 3.5-2.9 2.4-.7-.5-2.7-3.2-3.4-3.7-1.8-1.2-3.6 1.9-1.7 3 .7.5 4 1 4.7 1.5 1.4.8 1.3 2.9.2 3.5-.9.5-4.3 1.1-5 1.6-2 1-.3 4.1 1.5 3 .7-.4 2.7-3 4.4-3.5-.3 2.2-.8 10 5.8 11-6.1 8-13.3 29.7 11.7 38.8 24.3 9 56-6.3 62-35.3 0 0-13.5 36-46.6 29-10-2.2-23.1-8.8-10.8-18.3 1.6-1.3 3.4-2.4 5.2-3.6 1.6 6.6 8.5 7.4 12.2 7.4-.2 1.7-3.2 4-3.7 4.7-1.2 2 1.8 3.7 3 1.7.5-.7 1.1-4.1 1.7-5 .6-1.1 2.7-1 3.5.4.5.7 1 4 1.4 4.7 1 1.9 4.1.3 3-1.5-.4-.8-3.1-2.9-3.6-3.6-1.1-1.7 0-2.9 2.4-2.8 1.1 0 4.5 1.3 5.4 1.3 2.5 0 2.5-3.2 0-3.3-1 0-4.2 1.2-5.4 1.1-2.4 0-3.5-1.3-2.4-2.9.5-.7 3.2-2.7 3.7-3.4 1.1-1.8-2-3.6-3-1.7-.5.7-1 4-1.5 4.7-.8 1.4-2.9 1.3-3.5.2-.6-.9-1.1-4.3-1.6-5-1-2-4.1-.3-3 1.5.4.7 3.3 3 3.6 4.8-3.3-.5-5-2.3-5.7-4.5-.2-.7-.2-1.8.7-3a51.4 51.4 0 0 0 19.6-20c2 5.6 8 5.4 11.6 4.7 0 1.8-2.9 4.4-3.2 5.2-1.1 2 2 3.5 3.1 1.4.4-.8.7-4.2 1.1-5.2.6-1.1 2.7-1.2 3.6 0 .5.8 1.3 4 1.8 4.7 1.3 1.8 4.2-.1 2.9-1.9-.5-.7-3.4-2.5-4-3.2-1.2-1.5-.2-2.8 2.2-3 1.1 0 4.6.9 5.5.8 2.4-.2 2.1-3.4-.3-3.3m-33.9 47.5a24.4 24.4 0 0 0 3.9-.6c-.7 2.2-.4 2.2 2 3.2-1.3.6-2.6 1-4 1.5-3.7-1.5-4-2-1.9-4.1m-14.8-1.4 4 1c-2.4 2.9 1.9 2.8 2.8 6.4-3.7.6-5.5.2-5.5.2-.9-2.9-5.1-4.8-1.3-7.6m-12-7.1c.7 1.3 2 2.4 3.6 3.4-6.4 3.5-5.6 1.3-3.3 8.9 0 0-3.6-1-5.7-2.6-1.7-10.7 1.7-4.6 5.3-9.7m-1.2-3c-11.5-10.3-6.1-2.3-14.9-1.3a19.7 19.7 0 0 1-.3-6c4 1.7 7.6-11.5 16.4 2-1.4 2-1.7 3.7-1.2 5.2m6.2-10c-13.4-8.6 2.1-7.9-15.6-12.2a58.4 58.4 0 0 1 4-4.7c24.4 2.5 3.1 4.3 17 13.4a73.7 73.7 0 0 0-5.4 3.5m13-8.3c-13.7-12 4.7-16-13.5-18 0 0 2.7-2.3 5.2-3.5 26.5 5 3.6 8.8 13.5 17.7 0 0-2 2.2-5.2 3.8m17.6-18.1s-1.6 3.4-4.3 6.3c-4.7-7.8 5.1-9.8-10.4-15.8l5.7-2c6.1 5.3 10-.3 9 11.5m21.4-12.7a4.4 4.4 0 0 1-2.7 1 4.4 4.4 0 0 1-3.4-1.7 4.3 4.3 0 0 1 .6-6 4.4 4.4 0 0 1 2.8-1c1.2 0 2.5.6 3.3 1.6a4.3 4.3 0 0 1-.6 6m-14.2-17.3a4.4 4.4 0 0 1 2.7-1 4.4 4.4 0 0 1 3.4 1.6 4.2 4.2 0 0 1-.7 6 4.3 4.3 0 0 1-2.7 1 4.4 4.4 0 0 1-3.4-1.6 4.2 4.2 0 0 1 .7-6"/><path d="M631.1 392.8a2.1 2.1 0 0 0-.3 3 2.2 2.2 0 0 0 3 .4 2.1 2.1 0 0 0 .4-3 2.2 2.2 0 0 0-3.1-.4"/></g><path fill="transparent" class="shape-overlay" d="M154 74h90v90h-90z"/><path fill="transparent" d="M554 74h90v90h-90zM154 374h90v90h-90zM554 374h90v90h-90z"/></g><g fill="none" stroke-width="2"><g transform="matrix(1.5 0 0 1.5 35 -6)" fill="currentColor"><path d="M61.6 26a4 4 0 0 0-1.7-1.6c.1-1 0-2.7-.7-3.6-.7-.9-1.8-1-3-.6-.4-1.3-1-3-2.7-3-.7 0-1.5.4-2.3 1-.5-.5-1.3-1.2-2.4-1.2-1 0-2 .7-2.8 2a26.7 26.7 0 0 0-4 12.7 34.1 34.1 0 0 1-2.9-2.6 14 14 0 0 0-2-1.7 79 79 0 0 1-.8-1.2c-1.9-3.5-4-7-9-8.7 2-1.2 4.3-1.8 4.3-1.8l3.8-.8-3.7-1c-.1 0-2.2-.7-5.1-.7a17.8 17.8 0 0 1 2.2-1.3l3.4-1.7-3.8-.2h-.6c-3 0-12.7.7-16 9A13.5 13.5 0 0 0 8 23.5c-1.4 0-3.8.3-6 2l4.4 2.2-.2.8-4.2 1c1.2 1 2.8 1.6 3.9 1.9v1.4c0 11.9 5.7 19.2 16.6 21.3V61l-2.8-.1c-1.8 0-3.3 1.2-3.3 1.2h8.2v-7.5a42.6 42.6 0 0 0 5.7.4h1v6l-2.9-.1c-1.8 0-3.3 1.2-3.3 1.2h8.2v-7.3C47.6 53.3 55.1 42 55.1 38c0-.6-.1-1-.4-1.5a1.8 1.8 0 0 0-1.2-.7l2.8-1.7c2.6-1.5 4.8-2.8 5.5-5a4 4 0 0 0-.2-3M49 37.8A16 16 0 0 1 38 43c-2.3 0-4.6-.6-6.8-1.7-4-2-5.7-5.3-4.9-8.7a6 6 0 0 1 5.7-4.8c2 0 4 1 5.8 2.7 4.6 4.5 9 6.6 11.2 7.4m2.8 3.6a25 25 0 0 1-21.5 11.4c-15 0-22.5-6.8-22.5-20 0-5.5 2-10 5.4-12.4l.3-.2V20c2-5.5 7.4-7.2 11-7.8L23 13.6l-1.9 2 2.8-.3a20.4 20.4 0 0 1 3.5-.1c-1 .5-2.1 1.1-3 2L23 18.5l1.8.4c.3 0 .6 0 .9.2 4.6 1.1 6.5 3.9 8.3 7a8 8 0 0 0-2-.3 8 8 0 0 0-7.6 6.3c-.8 3.4.3 8 5.9 11 2.5 1.2 5.1 1.9 7.7 1.9 8.2 0 13.3-6.7 13.6-7l.2-.4h1.3c.1.4 0 1.8-1.3 3.9m8-13c-.3 1.4-2.2 2.5-4.4 3.8-1.6.9-3.4 2-5 3.3a25.8 25.8 0 0 1-2.5-.3 29.9 29.9 0 0 1-4-2.3c.3-5.2 1.5-9.5 3.7-13 .5-.6 1-1 1.2-1 .6 0 1.2.8 1.5 1.2l.6 1.3 1-1c1-1.3 1.5-1.3 1.6-1.3.3 0 .8 1.3.9 2.5l.1 1.5 1.4-.8c.8-.4 1.2-.5 1.4-.5l.4.1c.4.5.3 2 .2 2.8l-.1.9.8.2s.9.3 1.2 1c.3.4.3 1 0 1.6"/><circle cx="14.6" cy="25.4" r="2.5"/></g><g class="clone" transform="matrix(1.5 0 0 1.5 435 -6)" fill="currentColor"><path d="M61.6 26a4 4 0 0 0-1.7-1.6c.1-1 0-2.7-.7-3.6-.7-.9-1.8-1-3-.6-.4-1.3-1-3-2.7-3-.7 0-1.5.4-2.3 1-.5-.5-1.3-1.2-2.4-1.2-1 0-2 .7-2.8 2a26.7 26.7 0 0 0-4 12.7 34.1 34.1 0 0 1-2.9-2.6 14 14 0 0 0-2-1.7 79 79 0 0 1-.8-1.2c-1.9-3.5-4-7-9-8.7 2-1.2 4.3-1.8 4.3-1.8l3.8-.8-3.7-1c-.1 0-2.2-.7-5.1-.7a17.8 17.8 0 0 1 2.2-1.3l3.4-1.7-3.8-.2h-.6c-3 0-12.7.7-16 9A13.5 13.5 0 0 0 8 23.5c-1.4 0-3.8.3-6 2l4.4 2.2-.2.8-4.2 1c1.2 1 2.8 1.6 3.9 1.9v1.4c0 11.9 5.7 19.2 16.6 21.3V61l-2.8-.1c-1.8 0-3.3 1.2-3.3 1.2h8.2v-7.5a42.6 42.6 0 0 0 5.7.4h1v6l-2.9-.1c-1.8 0-3.3 1.2-3.3 1.2h8.2v-7.3C47.6 53.3 55.1 42 55.1 38c0-.6-.1-1-.4-1.5a1.8 1.8 0 0 0-1.2-.7l2.8-1.7c2.6-1.5 4.8-2.8 5.5-5a4 4 0 0 0-.2-3M49 37.8A16 16 0 0 1 38 43c-2.3 0-4.6-.6-6.8-1.7-4-2-5.7-5.3-4.9-8.7a6 6 0 0 1 5.7-4.8c2 0 4 1 5.8 2.7 4.6 4.5 9 6.6 11.2 7.4m2.8 3.6a25 25 0 0 1-21.5 11.4c-15 0-22.5-6.8-22.5-20 0-5.5 2-10 5.4-12.4l.3-.2V20c2-5.5 7.4-7.2 11-7.8L23 13.6l-1.9 2 2.8-.3a20.4 20.4 0 0 1 3.5-.1c-1 .5-2.1 1.1-3 2L23 18.5l1.8.4c.3 0 .6 0 .9.2 4.6 1.1 6.5 3.9 8.3 7a8 8 0 0 0-2-.3 8 8 0 0 0-7.6 6.3c-.8 3.4.3 8 5.9 11 2.5 1.2 5.1 1.9 7.7 1.9 8.2 0 13.3-6.7 13.6-7l.2-.4h1.3c.1.4 0 1.8-1.3 3.9m8-13c-.3 1.4-2.2 2.5-4.4 3.8-1.6.9-3.4 2-5 3.3a25.8 25.8 0 0 1-2.5-.3 29.9 29.9 0 0 1-4-2.3c.3-5.2 1.5-9.5 3.7-13 .5-.6 1-1 1.2-1 .6 0 1.2.8 1.5 1.2l.6 1.3 1-1c1-1.3 1.5-1.3 1.6-1.3.3 0 .8 1.3.9 2.5l.1 1.5 1.4-.8c.8-.4 1.2-.5 1.4-.5l.4.1c.4.5.3 2 .2 2.8l-.1.9.8.2s.9.3 1.2 1c.3.4.3 1 0 1.6"/><circle cx="14.6" cy="25.4" r="2.5"/></g><g class="clone" transform="matrix(1.5 0 0 1.5 35 294)" fill="currentColor"><path d="M61.6 26a4 4 0 0 0-1.7-1.6c.1-1 0-2.7-.7-3.6-.7-.9-1.8-1-3-.6-.4-1.3-1-3-2.7-3-.7 0-1.5.4-2.3 1-.5-.5-1.3-1.2-2.4-1.2-1 0-2 .7-2.8 2a26.7 26.7 0 0 0-4 12.7 34.1 34.1 0 0 1-2.9-2.6 14 14 0 0 0-2-1.7 79 79 0 0 1-.8-1.2c-1.9-3.5-4-7-9-8.7 2-1.2 4.3-1.8 4.3-1.8l3.8-.8-3.7-1c-.1 0-2.2-.7-5.1-.7a17.8 17.8 0 0 1 2.2-1.3l3.4-1.7-3.8-.2h-.6c-3 0-12.7.7-16 9A13.5 13.5 0 0 0 8 23.5c-1.4 0-3.8.3-6 2l4.4 2.2-.2.8-4.2 1c1.2 1 2.8 1.6 3.9 1.9v1.4c0 11.9 5.7 19.2 16.6 21.3V61l-2.8-.1c-1.8 0-3.3 1.2-3.3 1.2h8.2v-7.5a42.6 42.6 0 0 0 5.7.4h1v6l-2.9-.1c-1.8 0-3.3 1.2-3.3 1.2h8.2v-7.3C47.6 53.3 55.1 42 55.1 38c0-.6-.1-1-.4-1.5a1.8 1.8 0 0 0-1.2-.7l2.8-1.7c2.6-1.5 4.8-2.8 5.5-5a4 4 0 0 0-.2-3M49 37.8A16 16 0 0 1 38 43c-2.3 0-4.6-.6-6.8-1.7-4-2-5.7-5.3-4.9-8.7a6 6 0 0 1 5.7-4.8c2 0 4 1 5.8 2.7 4.6 4.5 9 6.6 11.2 7.4m2.8 3.6a25 25 0 0 1-21.5 11.4c-15 0-22.5-6.8-22.5-20 0-5.5 2-10 5.4-12.4l.3-.2V20c2-5.5 7.4-7.2 11-7.8L23 13.6l-1.9 2 2.8-.3a20.4 20.4 0 0 1 3.5-.1c-1 .5-2.1 1.1-3 2L23 18.5l1.8.4c.3 0 .6 0 .9.2 4.6 1.1 6.5 3.9 8.3 7a8 8 0 0 0-2-.3 8 8 0 0 0-7.6 6.3c-.8 3.4.3 8 5.9 11 2.5 1.2 5.1 1.9 7.7 1.9 8.2 0 13.3-6.7 13.6-7l.2-.4h1.3c.1.4 0 1.8-1.3 3.9m8-13c-.3 1.4-2.2 2.5-4.4 3.8-1.6.9-3.4 2-5 3.3a25.8 25.8 0 0 1-2.5-.3 29.9 29.9 0 0 1-4-2.3c.3-5.2 1.5-9.5 3.7-13 .5-.6 1-1 1.2-1 .6 0 1.2.8 1.5 1.2l.6 1.3 1-1c1-1.3 1.5-1.3 1.6-1.3.3 0 .8 1.3.9 2.5l.1 1.5 1.4-.8c.8-.4 1.2-.5 1.4-.5l.4.1c.4.5.3 2 .2 2.8l-.1.9.8.2s.9.3 1.2 1c.3.4.3 1 0 1.6"/><circle cx="14.6" cy="25.4" r="2.5"/></g><g class="clone" transform="matrix(1.5 0 0 1.5 435 294)" fill="currentColor"><path d="M61.6 26a4 4 0 0 0-1.7-1.6c.1-1 0-2.7-.7-3.6-.7-.9-1.8-1-3-.6-.4-1.3-1-3-2.7-3-.7 0-1.5.4-2.3 1-.5-.5-1.3-1.2-2.4-1.2-1 0-2 .7-2.8 2a26.7 26.7 0 0 0-4 12.7 34.1 34.1 0 0 1-2.9-2.6 14 14 0 0 0-2-1.7 79 79 0 0 1-.8-1.2c-1.9-3.5-4-7-9-8.7 2-1.2 4.3-1.8 4.3-1.8l3.8-.8-3.7-1c-.1 0-2.2-.7-5.1-.7a17.8 17.8 0 0 1 2.2-1.3l3.4-1.7-3.8-.2h-.6c-3 0-12.7.7-16 9A13.5 13.5 0 0 0 8 23.5c-1.4 0-3.8.3-6 2l4.4 2.2-.2.8-4.2 1c1.2 1 2.8 1.6 3.9 1.9v1.4c0 11.9 5.7 19.2 16.6 21.3V61l-2.8-.1c-1.8 0-3.3 1.2-3.3 1.2h8.2v-7.5a42.6 42.6 0 0 0 5.7.4h1v6l-2.9-.1c-1.8 0-3.3 1.2-3.3 1.2h8.2v-7.3C47.6 53.3 55.1 42 55.1 38c0-.6-.1-1-.4-1.5a1.8 1.8 0 0 0-1.2-.7l2.8-1.7c2.6-1.5 4.8-2.8 5.5-5a4 4 0 0 0-.2-3M49 37.8A16 16 0 0 1 38 43c-2.3 0-4.6-.6-6.8-1.7-4-2-5.7-5.3-4.9-8.7a6 6 0 0 1 5.7-4.8c2 0 4 1 5.8 2.7 4.6 4.5 9 6.6 11.2 7.4m2.8 3.6a25 25 0 0 1-21.5 11.4c-15 0-22.5-6.8-22.5-20 0-5.5 2-10 5.4-12.4l.3-.2V20c2-5.5 7.4-7.2 11-7.8L23 13.6l-1.9 2 2.8-.3a20.4 20.4 0 0 1 3.5-.1c-1 .5-2.1 1.1-3 2L23 18.5l1.8.4c.3 0 .6 0 .9.2 4.6 1.1 6.5 3.9 8.3 7a8 8 0 0 0-2-.3 8 8 0 0 0-7.6 6.3c-.8 3.4.3 8 5.9 11 2.5 1.2 5.1 1.9 7.7 1.9 8.2 0 13.3-6.7 13.6-7l.2-.4h1.3c.1.4 0 1.8-1.3 3.9m8-13c-.3 1.4-2.2 2.5-4.4 3.8-1.6.9-3.4 2-5 3.3a25.8 25.8 0 0 1-2.5-.3 29.9 29.9 0 0 1-4-2.3c.3-5.2 1.5-9.5 3.7-13 .5-.6 1-1 1.2-1 .6 0 1.2.8 1.5 1.2l.6 1.3 1-1c1-1.3 1.5-1.3 1.6-1.3.3 0 .8 1.3.9 2.5l.1 1.5 1.4-.8c.8-.4 1.2-.5 1.4-.5l.4.1c.4.5.3 2 .2 2.8l-.1.9.8.2s.9.3 1.2 1c.3.4.3 1 0 1.6"/><circle cx="14.6" cy="25.4" r="2.5"/></g><path fill="transparent" class="shape-overlay" d="M38 9h90v78H38z"/><path fill="transparent" d="M438 9h90v78h-90zM38 309h90v78H38zM438 309h90v78h-90z"/></g><g fill="none" stroke-width="2"><g fill="currentColor"><path d="M366.7 7.7c-3.7-2.4-6-1.3-7.2-.4-1.3-.9-2.6-1.6-3.8-2A46 46 0 0 0 340 3a46 46 0 0 0-15.7 2.2c-1.2.5-2.5 1.2-3.8 2.1-1.2-1-3.5-2-7.2.4-8.1 5.2-25.4 3.2-15.2 25.6 1.7 3.6 3 6.1 4 7.5 0 13 4.2 30 12.7 35.6 10.2 6.5 18 10.6 26 10.6 7.9 0 15.7-4 25.9-10.6 8.6-5.6 11.7-23 11.3-35.7 1-1.5 2.3-4 3.9-7.4 10.2-22.4-7.1-20.4-15.2-25.6M365 73.8c-9.6 6.3-17 10.2-24.2 10.2-7.2 0-14.7-3.9-24.3-10.2-7.2-4.6-11.2-20.2-11.3-32.2 1.3-1.2 2.8-4.5 4.8-10 1.7-4.7 1.6-8.1 2-11.2A35 35 0 0 1 325.5 8c3-1.3 8.5-2 14.5-2s11.4.7 14.6 2A35 35 0 0 1 368 20.4c.4 3 .3 6.5 2 11.1 2.2 6 3.7 9.4 5 10.3.4 12.2-2.9 27.4-10 32"/><path d="M328.4 43.1a9.8 9.8 0 1 0-19.6 0 9.8 9.8 0 0 0 19.6 0m-15.9 5.5a6.7 6.7 0 0 0 3.9 1.3c3.7 0 6.7-3 6.7-6.8a6.8 6.8 0 0 0-6.7-6.8c-1.5 0-2.8.5-3.9 1.3a8.2 8.2 0 0 1 6.1-2.8 8.3 8.3 0 0 1 0 16.6 8.2 8.2 0 0 1-6-2.8m48.8-15.3a9.8 9.8 0 1 0 0 19.6 9.8 9.8 0 0 0 0-19.6m0 18a8.3 8.3 0 0 1 0-16.5c2.4 0 4.6 1 6 2.8a6.7 6.7 0 0 0-3.8-1.3 6.8 6.8 0 0 0-6.7 6.8 6.8 6.8 0 0 0 6.7 6.8c1.5 0 2.8-.5 3.9-1.3a8.2 8.2 0 0 1-6.1 2.8"/><path d="M353.6 49.2a18.8 18.8 0 0 0-13.6-5.3c-5.4 0-10.4 2-13.6 5.3l-10.7 11.2a9.2 9.2 0 0 0 0 12.5 8.3 8.3 0 0 0 6 2.7 8.3 8.3 0 0 0 5.2-1.8l4 4.2c2.2 2.3 5.5 3.5 9.1 3.5 3.6 0 6.9-1.2 9-3.5l4.1-4.2a8.3 8.3 0 0 0 5.1 1.8c2.3 0 4.5-1 6.1-2.7a9.2 9.2 0 0 0 0-12.5l-10.7-11.2M347.9 77a11 11 0 0 1-7.9 3 11 11 0 0 1-8-3l-4-4.3 4-4.1 1.6-1.7c-.7 2-1 3.8-.8 5.1a7 7 0 0 0 7.2 6 7 7 0 0 0 7.2-6c.2-1.3 0-3-.8-5.1l5.6 5.8-4 4.3m15.2-5a6.8 6.8 0 0 1-5 2c-1.7 0-3.3-.6-4.5-1.8h-.1a4.9 4.9 0 0 0-.3-.3l-9.5-10-1.2-1.2c-.7-.7-1.6-1-2.6-1s-2 .3-2.6 1l-1.2 1.3-9.6 10a4 4 0 0 0-.2.2 6.8 6.8 0 0 1-9.6-.3 7.7 7.7 0 0 1 0-10.5l10.7-11.2c3-3 7.5-4.8 12.5-4.8s9.6 1.8 12.5 4.8l10.7 11.2a7.7 7.7 0 0 1 0 10.5"/><path d="M340 45.8c-4.9 0-8.8.7-8.8 4.7 0 3.1 7 6 8.8 6 1.8 0 8.8-2.9 8.8-6 0-4-4-4.7-8.8-4.7m-10 9.7-1.5-1.5-1.5 1.5 1.5 1.5zm-5.1 5.6-1.5-1.5 1.5-1.5 1.5 1.5zm3.2 0 1.5 1.5 1.5-1.5-1.5-1.5zm22-5.6 1.4 1.5 1.5-1.5-1.5-1.5zm5 5.6-1.5-1.5 1.5-1.5 1.5 1.5zm-6.2 0 1.5 1.5 1.5-1.5-1.5-1.5z"/></g><g class="clone" fill="currentColor"><path d="M-33.3 7.7c-3.7-2.4-6-1.3-7.2-.4-1.3-.9-2.6-1.6-3.8-2A46 46 0 0 0-60 3a46 46 0 0 0-15.7 2.2c-1.2.5-2.5 1.2-3.8 2.1-1.2-1-3.5-2-7.2.4-8.1 5.2-25.4 3.2-15.2 25.6 1.7 3.6 3 6.1 4 7.5 0 13 4.2 30 12.7 35.6 10.2 6.5 18 10.6 26 10.6 7.9 0 15.7-4 25.9-10.6 8.6-5.6 11.7-23 11.3-35.7 1-1.5 2.3-4 3.9-7.4C-8 10.9-25.2 12.9-33.3 7.7M-35 73.8C-44.6 80.1-52 84-59.2 84c-7.2 0-14.7-3.9-24.3-10.2-7.2-4.6-11.2-20.2-11.3-32.2 1.3-1.2 2.8-4.5 4.8-10 1.7-4.7 1.6-8.1 2-11.2A35 35 0 0 1-74.5 8c3-1.3 8.5-2 14.5-2s11.4.7 14.6 2A35 35 0 0 1-32 20.4c.4 3 .3 6.5 2 11.1 2.2 6 3.7 9.4 5 10.3.4 12.2-2.9 27.4-10 32"/><path d="M-71.6 43.1a9.8 9.8 0 1 0-19.6 0 9.8 9.8 0 0 0 19.6 0m-15.9 5.5a6.7 6.7 0 0 0 3.9 1.3c3.7 0 6.7-3 6.7-6.8a6.8 6.8 0 0 0-6.7-6.8c-1.5 0-2.8.5-3.9 1.3a8.2 8.2 0 0 1 6.1-2.8 8.3 8.3 0 0 1 0 16.6 8.2 8.2 0 0 1-6-2.8m48.8-15.3a9.8 9.8 0 1 0 0 19.6 9.8 9.8 0 0 0 0-19.6m0 18a8.3 8.3 0 0 1 0-16.5c2.4 0 4.6 1 6 2.8a6.7 6.7 0 0 0-3.8-1.3 6.8 6.8 0 0 0-6.7 6.8 6.8 6.8 0 0 0 6.7 6.8c1.5 0 2.8-.5 3.9-1.3a8.2 8.2 0 0 1-6.1 2.8"/><path d="M-46.4 49.2A18.8 18.8 0 0 0-60 43.9c-5.4 0-10.4 2-13.6 5.3l-10.7 11.2a9.2 9.2 0 0 0 0 12.5 8.3 8.3 0 0 0 6 2.7 8.3 8.3 0 0 0 5.2-1.8l4 4.2c2.2 2.3 5.5 3.5 9.1 3.5 3.6 0 6.9-1.2 9-3.5l4.1-4.2a8.3 8.3 0 0 0 5.1 1.8c2.3 0 4.5-1 6.1-2.7a9.2 9.2 0 0 0 0-12.5l-10.7-11.2M-52.1 77a11 11 0 0 1-7.9 3 11 11 0 0 1-8-3l-4-4.3 4-4.1 1.6-1.7c-.7 2-1 3.8-.8 5.1a7 7 0 0 0 7.2 6 7 7 0 0 0 7.2-6c.2-1.3 0-3-.8-5.1l5.6 5.8-4 4.3m15.2-5a6.8 6.8 0 0 1-5 2c-1.7 0-3.3-.6-4.5-1.8h-.1a4.9 4.9 0 0 0-.3-.3l-9.5-10-1.2-1.2c-.7-.7-1.6-1-2.6-1s-2 .3-2.6 1l-1.2 1.3-9.6 10a4 4 0 0 0-.2.2 6.8 6.8 0 0 1-9.6-.3 7.7 7.7 0 0 1 0-10.5l10.7-11.2c3-3 7.5-4.8 12.5-4.8s9.6 1.8 12.5 4.8l10.7 11.2a7.7 7.7 0 0 1 0 10.5"/><path d="M-60 45.8c-4.9 0-8.8.7-8.8 4.7 0 3.1 7 6 8.8 6 1.8 0 8.8-2.9 8.8-6 0-4-4-4.7-8.8-4.7m-10 9.7-1.5-1.5-1.5 1.5 1.5 1.5zm-5.1 5.6-1.5-1.5 1.5-1.5 1.5 1.5zm3.2 0 1.5 1.5 1.5-1.5-1.5-1.5zm22-5.6 1.4 1.5 1.5-1.5-1.5-1.5zm5 5.6-1.5-1.5 1.5-1.5 1.5 1.5zm-6.2 0 1.5 1.5 1.5-1.5-1.5-1.5z"/></g><g class="clone" fill="currentColor"><path d="M366.7 307.7c-3.7-2.4-6-1.3-7.2-.4-1.3-.9-2.6-1.6-3.8-2A46 46 0 0 0 340 303a46 46 0 0 0-15.7 2.2c-1.2.5-2.5 1.2-3.8 2.1-1.2-1-3.5-2-7.2.4-8.1 5.2-25.4 3.2-15.2 25.6 1.7 3.6 3 6.1 4 7.5 0 13 4.2 30 12.7 35.6 10.2 6.5 18 10.6 26 10.6 7.9 0 15.7-4 25.9-10.6 8.6-5.6 11.7-23 11.3-35.7 1-1.5 2.3-4 3.9-7.4 10.2-22.4-7.1-20.4-15.2-25.6m-1.7 66.1c-9.6 6.3-17 10.2-24.2 10.2-7.2 0-14.7-3.9-24.3-10.2-7.2-4.6-11.2-20.2-11.3-32.2 1.3-1.2 2.8-4.5 4.8-10 1.7-4.7 1.6-8.1 2-11.2a35 35 0 0 1 13.5-12.4c3-1.3 8.5-2 14.5-2s11.4.7 14.6 2a35 35 0 0 1 13.4 12.4c.4 3 .3 6.5 2 11.1 2.2 6 3.7 9.4 5 10.3.4 12.2-2.9 27.4-10 32"/><path d="M328.4 343.1a9.8 9.8 0 1 0-19.6 0 9.8 9.8 0 0 0 19.6 0m-15.9 5.5a6.7 6.7 0 0 0 3.9 1.3c3.7 0 6.7-3 6.7-6.8a6.8 6.8 0 0 0-6.7-6.8c-1.5 0-2.8.5-3.9 1.3a8.2 8.2 0 0 1 6.1-2.8 8.3 8.3 0 0 1 0 16.6 8.2 8.2 0 0 1-6-2.8m48.8-15.3a9.8 9.8 0 1 0 0 19.6 9.8 9.8 0 0 0 0-19.6m0 18a8.3 8.3 0 0 1 0-16.5c2.4 0 4.6 1 6 2.8a6.7 6.7 0 0 0-3.8-1.3 6.8 6.8 0 0 0-6.7 6.8 6.8 6.8 0 0 0 6.7 6.8c1.5 0 2.8-.5 3.9-1.3a8.2 8.2 0 0 1-6.1 2.8"/><path d="M353.6 349.2a18.8 18.8 0 0 0-13.6-5.3c-5.4 0-10.4 2-13.6 5.3l-10.7 11.2a9.2 9.2 0 0 0 0 12.5 8.3 8.3 0 0 0 6 2.7 8.3 8.3 0 0 0 5.2-1.8l4 4.2c2.2 2.3 5.5 3.5 9.1 3.5 3.6 0 6.9-1.2 9-3.5l4.1-4.2a8.3 8.3 0 0 0 5.1 1.8c2.3 0 4.5-1 6.1-2.7a9.2 9.2 0 0 0 0-12.5l-10.7-11.2m-5.7 27.8a11 11 0 0 1-7.9 3 11 11 0 0 1-8-3l-4-4.3 4-4.1 1.6-1.7c-.7 2-1 3.8-.8 5.1a7 7 0 0 0 7.2 6 7 7 0 0 0 7.2-6c.2-1.3 0-3-.8-5.1l5.6 5.8-4 4.3m15.2-5a6.8 6.8 0 0 1-5 2c-1.7 0-3.3-.6-4.5-1.8h-.1a4.9 4.9 0 0 0-.3-.3l-9.5-10-1.2-1.2c-.7-.7-1.6-1-2.6-1s-2 .3-2.6 1l-1.2 1.3-9.6 10a4 4 0 0 0-.2.2 6.8 6.8 0 0 1-9.6-.3 7.7 7.7 0 0 1 0-10.5l10.7-11.2c3-3 7.5-4.8 12.5-4.8s9.6 1.8 12.5 4.8l10.7 11.2a7.7 7.7 0 0 1 0 10.5"/><path d="M340 345.8c-4.9 0-8.8.7-8.8 4.7 0 3.1 7 6 8.8 6 1.8 0 8.8-2.9 8.8-6 0-4-4-4.7-8.8-4.7m-10 9.7-1.5-1.5-1.5 1.5 1.5 1.5zm-5.1 5.6-1.5-1.5 1.5-1.5 1.5 1.5zm3.2 0 1.5 1.5 1.5-1.5-1.5-1.5zm22-5.6 1.4 1.5 1.5-1.5-1.5-1.5zm5 5.6-1.5-1.5 1.5-1.5 1.5 1.5zm-6.2 0 1.5 1.5 1.5-1.5-1.5-1.5z"/></g><g class="clone" fill="currentColor"><path d="M-33.3 307.7c-3.7-2.4-6-1.3-7.2-.4-1.3-.9-2.6-1.6-3.8-2A46 46 0 0 0-60 303a46 46 0 0 0-15.7 2.2c-1.2.5-2.5 1.2-3.8 2.1-1.2-1-3.5-2-7.2.4-8.1 5.2-25.4 3.2-15.2 25.6 1.7 3.6 3 6.1 4 7.5 0 13 4.2 30 12.7 35.6 10.2 6.5 18 10.6 26 10.6 7.9 0 15.7-4 25.9-10.6 8.6-5.6 11.7-23 11.3-35.7 1-1.5 2.3-4 3.9-7.4 10.2-22.4-7.1-20.4-15.2-25.6m-1.7 66.1c-9.6 6.3-17 10.2-24.2 10.2-7.2 0-14.7-3.9-24.3-10.2-7.2-4.6-11.2-20.2-11.3-32.2 1.3-1.2 2.8-4.5 4.8-10 1.7-4.7 1.6-8.1 2-11.2A35 35 0 0 1-74.5 308c3-1.3 8.5-2 14.5-2s11.4.7 14.6 2A35 35 0 0 1-32 320.4c.4 3 .3 6.5 2 11.1 2.2 6 3.7 9.4 5 10.3.4 12.2-2.9 27.4-10 32"/><path d="M-71.6 343.1a9.8 9.8 0 1 0-19.6 0 9.8 9.8 0 0 0 19.6 0m-15.9 5.5a6.7 6.7 0 0 0 3.9 1.3c3.7 0 6.7-3 6.7-6.8a6.8 6.8 0 0 0-6.7-6.8c-1.5 0-2.8.5-3.9 1.3a8.2 8.2 0 0 1 6.1-2.8 8.3 8.3 0 0 1 0 16.6 8.2 8.2 0 0 1-6-2.8m48.8-15.3a9.8 9.8 0 1 0 0 19.6 9.8 9.8 0 0 0 0-19.6m0 18a8.3 8.3 0 0 1 0-16.5c2.4 0 4.6 1 6 2.8a6.7 6.7 0 0 0-3.8-1.3 6.8 6.8 0 0 0-6.7 6.8 6.8 6.8 0 0 0 6.7 6.8c1.5 0 2.8-.5 3.9-1.3a8.2 8.2 0 0 1-6.1 2.8"/><path d="M-46.4 349.2a18.8 18.8 0 0 0-13.6-5.3c-5.4 0-10.4 2-13.6 5.3l-10.7 11.2a9.2 9.2 0 0 0 0 12.5 8.3 8.3 0 0 0 6 2.7 8.3 8.3 0 0 0 5.2-1.8l4 4.2c2.2 2.3 5.5 3.5 9.1 3.5 3.6 0 6.9-1.2 9-3.5l4.1-4.2a8.3 8.3 0 0 0 5.1 1.8c2.3 0 4.5-1 6.1-2.7a9.2 9.2 0 0 0 0-12.5l-10.7-11.2m-5.7 27.8a11 11 0 0 1-7.9 3 11 11 0 0 1-8-3l-4-4.3 4-4.1 1.6-1.7c-.7 2-1 3.8-.8 5.1a7 7 0 0 0 7.2 6 7 7 0 0 0 7.2-6c.2-1.3 0-3-.8-5.1l5.6 5.8-4 4.3m15.2-5a6.8 6.8 0 0 1-5 2c-1.7 0-3.3-.6-4.5-1.8h-.1a4.9 4.9 0 0 0-.3-.3l-9.5-10-1.2-1.2c-.7-.7-1.6-1-2.6-1s-2 .3-2.6 1l-1.2 1.3-9.6 10a4 4 0 0 0-.2.2 6.8 6.8 0 0 1-9.6-.3 7.7 7.7 0 0 1 0-10.5l10.7-11.2c3-3 7.5-4.8 12.5-4.8s9.6 1.8 12.5 4.8l10.7 11.2a7.7 7.7 0 0 1 0 10.5"/><path d="M-60 345.8c-4.9 0-8.8.7-8.8 4.7 0 3.1 7 6 8.8 6 1.8 0 8.8-2.9 8.8-6 0-4-4-4.7-8.8-4.7m-10 9.7-1.5-1.5-1.5 1.5 1.5 1.5zm-5.1 5.6-1.5-1.5 1.5-1.5 1.5 1.5zm3.2 0 1.5 1.5 1.5-1.5-1.5-1.5zm22-5.6 1.4 1.5 1.5-1.5-1.5-1.5zm5 5.6-1.5-1.5 1.5-1.5 1.5 1.5zm-6.2 0 1.5 1.5 1.5-1.5-1.5-1.5z"/></g><path fill="transparent" class="shape-overlay" d="M295 3h90v84h-90z"/><path fill="transparent" d="M-105 3h90v84h-90zM295 303h90v84h-90zM-105 303h90v84h-90z"/></g><g fill="none" stroke-width="2"><g transform="matrix(1.5 0 0 1.5 33 175)" fill="currentColor"><path d="M60.3 33.5c0-3.3 3.9-5.8 0-10.4l-6.4 5.8c-.2 1.3-.7 7.6.3 11 2 1 6 4 6 4 4-4.6 0-6.9 0-10.4m-58-.1s.8.6 1.1 1.3c.3.6-1.8.9-1.2 1.9a30 30 0 0 0 12 9.2c2.2-4.3 3.4-9.2 3.4-14.4 0-4.4-1-8.8-2.7-12.7C5.1 23.2 2.3 33.4 2.3 33.4m14.4-.8c0 3.5-2.6 6.3-6 6.3C7.6 39 5 36.1 5 32.6s2.6-6.3 5.9-6.3c3.3 0 6 2.8 6 6.3m33 8.8.3-.2a48.1 48.1 0 0 1-1-9.8c0-1.4 0-2.8.2-4.2l2 1.4c1.2-3.2.5-7.4-2-10.4-1.8-2-4-3.2-6.2-3.2-1.7 0-3.4.7-4.6 2.2a7.1 7.1 0 0 0-1 1.8v-.8c0-4.5-4.2-8.2-9.4-8.2-5 0-9 3.2-9.4 7.3l3-.4a40 40 0 0 1 2.6 12.9 10.3 10.3 0 0 0-1 4c0 1 .2 2 .7 3-.5 3.8-1.5 7.5-3 10.9-1 0-1.7-.2-2.3-.3a11 11 0 0 0 6 5.7c1.4.6 2.9.9 4.2.9 2.7 0 4.8-1.2 5.4-3.2a5 5 0 0 0 0-2.7c1.9 2 5 3.5 8.8 3.5 5.7 0 10.4-3.4 10.4-7.5a6 6 0 0 0-1.5-3.9L50 41.4m-12.6-22a30.6 30.6 0 0 1 3.2 1.7 32 32 0 0 0-2 7.6 14.3 14.3 0 0 0-.8-.8 9.3 9.3 0 0 0-6.2-2.4 38 38 0 0 1 3.4-7 37.5 37.5 0 0 1 2.4.9m-3 28-4.7.4a42.5 42.5 0 0 1-.7-7.7v-1.2c1.4.4 2.7 1 4 1.6 1 .5 2 1 3.1 1.2a3.6 3.6 0 0 0 3-.7 31.6 31.6 0 0 0 1.4 4.7c-2 .8-4.2 1.4-6.2 1.7"/><ellipse cx="10.8" cy="32.6" rx="4.1" ry="4.3"/></g><g class="clone" transform="matrix(1.5 0 0 1.5 433 175)" fill="currentColor"><path d="M60.3 33.5c0-3.3 3.9-5.8 0-10.4l-6.4 5.8c-.2 1.3-.7 7.6.3 11 2 1 6 4 6 4 4-4.6 0-6.9 0-10.4m-58-.1s.8.6 1.1 1.3c.3.6-1.8.9-1.2 1.9a30 30 0 0 0 12 9.2c2.2-4.3 3.4-9.2 3.4-14.4 0-4.4-1-8.8-2.7-12.7C5.1 23.2 2.3 33.4 2.3 33.4m14.4-.8c0 3.5-2.6 6.3-6 6.3C7.6 39 5 36.1 5 32.6s2.6-6.3 5.9-6.3c3.3 0 6 2.8 6 6.3m33 8.8.3-.2a48.1 48.1 0 0 1-1-9.8c0-1.4 0-2.8.2-4.2l2 1.4c1.2-3.2.5-7.4-2-10.4-1.8-2-4-3.2-6.2-3.2-1.7 0-3.4.7-4.6 2.2a7.1 7.1 0 0 0-1 1.8v-.8c0-4.5-4.2-8.2-9.4-8.2-5 0-9 3.2-9.4 7.3l3-.4a40 40 0 0 1 2.6 12.9 10.3 10.3 0 0 0-1 4c0 1 .2 2 .7 3-.5 3.8-1.5 7.5-3 10.9-1 0-1.7-.2-2.3-.3a11 11 0 0 0 6 5.7c1.4.6 2.9.9 4.2.9 2.7 0 4.8-1.2 5.4-3.2a5 5 0 0 0 0-2.7c1.9 2 5 3.5 8.8 3.5 5.7 0 10.4-3.4 10.4-7.5a6 6 0 0 0-1.5-3.9L50 41.4m-12.6-22a30.6 30.6 0 0 1 3.2 1.7 32 32 0 0 0-2 7.6 14.3 14.3 0 0 0-.8-.8 9.3 9.3 0 0 0-6.2-2.4 38 38 0 0 1 3.4-7 37.5 37.5 0 0 1 2.4.9m-3 28-4.7.4a42.5 42.5 0 0 1-.7-7.7v-1.2c1.4.4 2.7 1 4 1.6 1 .5 2 1 3.1 1.2a3.6 3.6 0 0 0 3-.7 31.6 31.6 0 0 0 1.4 4.7c-2 .8-4.2 1.4-6.2 1.7"/><ellipse cx="10.8" cy="32.6" rx="4.1" ry="4.3"/></g><g class="clone" transform="matrix(1.5 0 0 1.5 33 -125)" fill="currentColor"><path d="M60.3 33.5c0-3.3 3.9-5.8 0-10.4l-6.4 5.8c-.2 1.3-.7 7.6.3 11 2 1 6 4 6 4 4-4.6 0-6.9 0-10.4m-58-.1s.8.6 1.1 1.3c.3.6-1.8.9-1.2 1.9a30 30 0 0 0 12 9.2c2.2-4.3 3.4-9.2 3.4-14.4 0-4.4-1-8.8-2.7-12.7C5.1 23.2 2.3 33.4 2.3 33.4m14.4-.8c0 3.5-2.6 6.3-6 6.3C7.6 39 5 36.1 5 32.6s2.6-6.3 5.9-6.3c3.3 0 6 2.8 6 6.3m33 8.8.3-.2a48.1 48.1 0 0 1-1-9.8c0-1.4 0-2.8.2-4.2l2 1.4c1.2-3.2.5-7.4-2-10.4-1.8-2-4-3.2-6.2-3.2-1.7 0-3.4.7-4.6 2.2a7.1 7.1 0 0 0-1 1.8v-.8c0-4.5-4.2-8.2-9.4-8.2-5 0-9 3.2-9.4 7.3l3-.4a40 40 0 0 1 2.6 12.9 10.3 10.3 0 0 0-1 4c0 1 .2 2 .7 3-.5 3.8-1.5 7.5-3 10.9-1 0-1.7-.2-2.3-.3a11 11 0 0 0 6 5.7c1.4.6 2.9.9 4.2.9 2.7 0 4.8-1.2 5.4-3.2a5 5 0 0 0 0-2.7c1.9 2 5 3.5 8.8 3.5 5.7 0 10.4-3.4 10.4-7.5a6 6 0 0 0-1.5-3.9L50 41.4m-12.6-22a30.6 30.6 0 0 1 3.2 1.7 32 32 0 0 0-2 7.6 14.3 14.3 0 0 0-.8-.8 9.3 9.3 0 0 0-6.2-2.4 38 38 0 0 1 3.4-7 37.5 37.5 0 0 1 2.4.9m-3 28-4.7.4a42.5 42.5 0 0 1-.7-7.7v-1.2c1.4.4 2.7 1 4 1.6 1 .5 2 1 3.1 1.2a3.6 3.6 0 0 0 3-.7 31.6 31.6 0 0 0 1.4 4.7c-2 .8-4.2 1.4-6.2 1.7"/><ellipse cx="10.8" cy="32.6" rx="4.1" ry="4.3"/></g><g class="clone" transform="matrix(1.5 0 0 1.5 433 -125)" fill="currentColor"><path d="M60.3 33.5c0-3.3 3.9-5.8 0-10.4l-6.4 5.8c-.2 1.3-.7 7.6.3 11 2 1 6 4 6 4 4-4.6 0-6.9 0-10.4m-58-.1s.8.6 1.1 1.3c.3.6-1.8.9-1.2 1.9a30 30 0 0 0 12 9.2c2.2-4.3 3.4-9.2 3.4-14.4 0-4.4-1-8.8-2.7-12.7C5.1 23.2 2.3 33.4 2.3 33.4m14.4-.8c0 3.5-2.6 6.3-6 6.3C7.6 39 5 36.1 5 32.6s2.6-6.3 5.9-6.3c3.3 0 6 2.8 6 6.3m33 8.8.3-.2a48.1 48.1 0 0 1-1-9.8c0-1.4 0-2.8.2-4.2l2 1.4c1.2-3.2.5-7.4-2-10.4-1.8-2-4-3.2-6.2-3.2-1.7 0-3.4.7-4.6 2.2a7.1 7.1 0 0 0-1 1.8v-.8c0-4.5-4.2-8.2-9.4-8.2-5 0-9 3.2-9.4 7.3l3-.4a40 40 0 0 1 2.6 12.9 10.3 10.3 0 0 0-1 4c0 1 .2 2 .7 3-.5 3.8-1.5 7.5-3 10.9-1 0-1.7-.2-2.3-.3a11 11 0 0 0 6 5.7c1.4.6 2.9.9 4.2.9 2.7 0 4.8-1.2 5.4-3.2a5 5 0 0 0 0-2.7c1.9 2 5 3.5 8.8 3.5 5.7 0 10.4-3.4 10.4-7.5a6 6 0 0 0-1.5-3.9L50 41.4m-12.6-22a30.6 30.6 0 0 1 3.2 1.7 32 32 0 0 0-2 7.6 14.3 14.3 0 0 0-.8-.8 9.3 9.3 0 0 0-6.2-2.4 38 38 0 0 1 3.4-7 37.5 37.5 0 0 1 2.4.9m-3 28-4.7.4a42.5 42.5 0 0 1-.7-7.7v-1.2c1.4.4 2.7 1 4 1.6 1 .5 2 1 3.1 1.2a3.6 3.6 0 0 0 3-.7 31.6 31.6 0 0 0 1.4 4.7c-2 .8-4.2 1.4-6.2 1.7"/><ellipse cx="10.8" cy="32.6" rx="4.1" ry="4.3"/></g><path fill="transparent" class="shape-overlay" d="M36 190h90v66H36z"/><path fill="transparent" d="M436 190h90v66h-90zM36-110h90v66H36zM436-110h90v66h-90z"/></g><g fill="none" stroke-width="2"><g fill="currentColor"><path d="M399.2 133.3c-3.7-2.3-21.6 7.4-32.5 17a72 72 0 0 0-9-.6 72.7 72.7 0 0 0-8.4.4c-11-9.4-28.8-19-32.5-16.8-4.6 2.8-5 28.9-1.2 43.3-2 6.6-2.4 13.3-2.4 18.6 0 6.8 20 27.8 44.5 27.8s44.4-21 44.4-27.8c0-5-.4-11.2-2-17.4 4.2-14.2 3.8-41.6-.9-44.5m-21.5 44c-.9 1-1.5 3.2-1.5 6.9 0 9.9 4.7 9.9 4.7 0 0-4.2-.8-6.6-1.8-7.2 7.9-1.5 12.1 5.1 12.1 5.1s-.3 8.5-9 10.8c-8.6 2.3-13.2-4.9-13.2-4.9s.4-8.3 8.7-10.7M346.3 188s-4.6 7.2-13.2 5c-8.6-2.4-9-10.9-9-10.9s4.2-6.6 12.2-5.1c-1 .6-1.9 3-1.9 7.2 0 9.9 4.8 9.9 4.8 0 0-3.7-.7-6-1.5-7 8.2 2.5 8.6 10.8 8.6 10.8m-22-41c1.1-.7 7.3 2 13.4 5.7a34.2 34.2 0 0 0-15.4 10.7c-.2-7.9.7-15.6 2-16.4m33.4 74.4c-18 0-35.5-15.3-35.5-15.3s16.4-5.4 22.5-10.1c3.9-3 8.1-13 13-13s9 10 13 13c6 4.7 22.4 10.1 22.4 10.1s-17.4 15.3-35.4 15.3m36-57.2A33.9 33.9 0 0 0 378 153c6.2-3.8 12.6-6.6 13.7-6 1.3.9 2.2 9.2 2 17.3"/><path d="M365.6 210.8a7.8 7.8 0 0 1-4.4-1.7 6.3 6.3 0 0 1-2.4-3.8v-.5c.8-.2 1.8-.7 2.8-1.7 2.3-2.3 3-5 2.1-6-1.2-1.5-5-1.6-6-1.6-1.1 0-4.9.1-6 1.6-1 1-.3 3.7 2 6 1 1 2 1.5 2.9 1.7l-.1.5a6.3 6.3 0 0 1-2.4 3.8 7.9 7.9 0 0 1-4.3 1.6c-1.7.1-3.3-.2-4.8-1.1a7.5 7.5 0 0 1-3.2-4c0 1.8 1.1 3.7 2.6 5a8.9 8.9 0 0 0 10.7.6v.5c0 2.1 1.1 3.8 2.6 3.8s2.6-1.7 2.6-3.8v-.5a9 9 0 0 0 5.3 1.5 8.8 8.8 0 0 0 5.4-2.1 7.4 7.4 0 0 0 2.5-5 7.5 7.5 0 0 1-3.2 4c-1.4.9-3.1 1.2-4.7 1.2"/></g><g class="clone" fill="currentColor"><path d="M-.8 133.3c-3.7-2.3-21.6 7.4-32.5 17a72 72 0 0 0-9-.6 72.7 72.7 0 0 0-8.4.4c-11-9.4-28.8-19-32.5-16.8-4.6 2.8-5 28.9-1.2 43.3-2 6.6-2.4 13.3-2.4 18.6 0 6.8 20 27.8 44.5 27.8S2 202 2 195.2c0-5-.4-11.2-2-17.4 4.2-14.2 3.8-41.6-.9-44.5m-21.5 44c-.9 1-1.5 3.2-1.5 6.9 0 9.9 4.7 9.9 4.7 0 0-4.2-.8-6.6-1.8-7.2 7.9-1.5 12.1 5.1 12.1 5.1s-.3 8.5-9 10.8C-26.3 195.2-31 188-31 188s.4-8.3 8.7-10.7M-53.7 188s-4.6 7.2-13.2 5c-8.6-2.4-9-10.9-9-10.9s4.2-6.6 12.2-5.1c-1 .6-1.9 3-1.9 7.2 0 9.9 4.8 9.9 4.8 0 0-3.7-.7-6-1.5-7 8.2 2.5 8.6 10.8 8.6 10.8m-22-41c1.1-.7 7.3 2 13.4 5.7a34.2 34.2 0 0 0-15.4 10.7c-.2-7.9.7-15.6 2-16.4m33.4 74.4c-18 0-35.5-15.3-35.5-15.3s16.4-5.4 22.5-10.1c3.9-3 8.1-13 13-13s9 10 13 13C-23.4 200.7-7 206-7 206s-17.4 15.3-35.4 15.3m36-57.2A33.9 33.9 0 0 0-22 153c6.2-3.8 12.6-6.6 13.7-6 1.3.9 2.2 9.2 2 17.3"/><path d="M-34.4 210.8a7.8 7.8 0 0 1-4.4-1.7 6.3 6.3 0 0 1-2.4-3.8v-.5c.8-.2 1.8-.7 2.8-1.7 2.3-2.3 3-5 2.1-6-1.2-1.5-5-1.6-6-1.6-1.1 0-4.9.1-6 1.6-1 1-.3 3.7 2 6 1 1 2 1.5 2.9 1.7l-.1.5a6.3 6.3 0 0 1-2.4 3.8 7.9 7.9 0 0 1-4.3 1.6c-1.7.1-3.3-.2-4.8-1.1a7.5 7.5 0 0 1-3.2-4c0 1.8 1.1 3.7 2.6 5a8.9 8.9 0 0 0 10.7.6v.5c0 2.1 1.1 3.8 2.6 3.8s2.6-1.7 2.6-3.8v-.5a9 9 0 0 0 5.3 1.5 8.8 8.8 0 0 0 5.4-2.1 7.4 7.4 0 0 0 2.5-5 7.5 7.5 0 0 1-3.2 4c-1.4.9-3.1 1.2-4.7 1.2"/></g><g class="clone" fill="currentColor"><path d="M399.2-166.7c-3.7-2.3-21.6 7.4-32.5 17a72 72 0 0 0-9-.6 72.7 72.7 0 0 0-8.4.4c-11-9.4-28.8-19-32.5-16.8-4.6 2.8-5 28.9-1.2 43.3-2 6.6-2.4 13.3-2.4 18.6 0 6.8 20 27.8 44.5 27.8S402-98 402-104.8c0-5-.4-11.2-2-17.4 4.2-14.2 3.8-41.6-.9-44.5m-21.5 44c-.9 1-1.5 3.2-1.5 6.9 0 9.9 4.7 9.9 4.7 0 0-4.2-.8-6.6-1.8-7.2 7.9-1.5 12.1 5.1 12.1 5.1s-.3 8.5-9 10.8c-8.6 2.3-13.2-4.9-13.2-4.9s.4-8.3 8.7-10.7M346.3-112s-4.6 7.2-13.2 5c-8.6-2.4-9-10.9-9-10.9s4.2-6.6 12.2-5.1c-1 .6-1.9 3-1.9 7.2 0 9.9 4.8 9.9 4.8 0 0-3.7-.7-6-1.5-7 8.2 2.5 8.6 10.8 8.6 10.8m-22-41c1.1-.7 7.3 2 13.4 5.7a34.2 34.2 0 0 0-15.4 10.7c-.2-7.9.7-15.6 2-16.4m33.4 74.4c-18 0-35.5-15.3-35.5-15.3s16.4-5.4 22.5-10.1c3.9-3 8.1-13 13-13s9 10 13 13C376.6-99.3 393-94 393-94s-17.4 15.3-35.4 15.3m36-57.2A33.9 33.9 0 0 0 378-147c6.2-3.8 12.6-6.6 13.7-6 1.3.9 2.2 9.2 2 17.3"/><path d="M365.6-89.2a7.8 7.8 0 0 1-4.4-1.7 6.3 6.3 0 0 1-2.4-3.8v-.5c.8-.2 1.8-.7 2.8-1.7 2.3-2.3 3-5 2.1-6-1.2-1.5-5-1.6-6-1.6-1.1 0-4.9.1-6 1.6-1 1-.3 3.7 2 6 1 1 2 1.5 2.9 1.7l-.1.5a6.3 6.3 0 0 1-2.4 3.8 7.9 7.9 0 0 1-4.3 1.6c-1.7.1-3.3-.2-4.8-1.1a7.5 7.5 0 0 1-3.2-4c0 1.8 1.1 3.7 2.6 5a8.9 8.9 0 0 0 10.7.6v.5c0 2.1 1.1 3.8 2.6 3.8s2.6-1.7 2.6-3.8v-.5a9 9 0 0 0 5.3 1.5 8.8 8.8 0 0 0 5.4-2.1 7.4 7.4 0 0 0 2.5-5 7.5 7.5 0 0 1-3.2 4c-1.4.9-3.1 1.2-4.7 1.2"/></g><g class="clone" fill="currentColor"><path d="M-.8-166.7c-3.7-2.3-21.6 7.4-32.5 17a72 72 0 0 0-9-.6 72.7 72.7 0 0 0-8.4.4c-11-9.4-28.8-19-32.5-16.8-4.6 2.8-5 28.9-1.2 43.3-2 6.6-2.4 13.3-2.4 18.6 0 6.8 20 27.8 44.5 27.8S2-98 2-104.8c0-5-.4-11.2-2-17.4 4.2-14.2 3.8-41.6-.9-44.5m-21.5 44c-.9 1-1.5 3.2-1.5 6.9 0 9.9 4.7 9.9 4.7 0 0-4.2-.8-6.6-1.8-7.2 7.9-1.5 12.1 5.1 12.1 5.1s-.3 8.5-9 10.8C-26.3-104.8-31-112-31-112s.4-8.3 8.7-10.7M-53.7-112s-4.6 7.2-13.2 5c-8.6-2.4-9-10.9-9-10.9s4.2-6.6 12.2-5.1c-1 .6-1.9 3-1.9 7.2 0 9.9 4.8 9.9 4.8 0 0-3.7-.7-6-1.5-7 8.2 2.5 8.6 10.8 8.6 10.8m-22-41c1.1-.7 7.3 2 13.4 5.7a34.2 34.2 0 0 0-15.4 10.7c-.2-7.9.7-15.6 2-16.4m33.4 74.4c-18 0-35.5-15.3-35.5-15.3s16.4-5.4 22.5-10.1c3.9-3 8.1-13 13-13s9 10 13 13C-23.4-99.3-7-94-7-94s-17.4 15.3-35.4 15.3m36-57.2A33.9 33.9 0 0 0-22-147c6.2-3.8 12.6-6.6 13.7-6 1.3.9 2.2 9.2 2 17.3"/><path d="M-34.4-89.2a7.8 7.8 0 0 1-4.4-1.7 6.3 6.3 0 0 1-2.4-3.8v-.5c.8-.2 1.8-.7 2.8-1.7 2.3-2.3 3-5 2.1-6-1.2-1.5-5-1.6-6-1.6-1.1 0-4.9.1-6 1.6-1 1-.3 3.7 2 6 1 1 2 1.5 2.9 1.7l-.1.5a6.3 6.3 0 0 1-2.4 3.8 7.9 7.9 0 0 1-4.3 1.6c-1.7.1-3.3-.2-4.8-1.1a7.5 7.5 0 0 1-3.2-4c0 1.8 1.1 3.7 2.6 5a8.9 8.9 0 0 0 10.7.6v.5c0 2.1 1.1 3.8 2.6 3.8s2.6-1.7 2.6-3.8v-.5a9 9 0 0 0 5.3 1.5 8.8 8.8 0 0 0 5.4-2.1 7.4 7.4 0 0 0 2.5-5 7.5 7.5 0 0 1-3.2 4c-1.4.9-3.1 1.2-4.7 1.2"/></g><path fill="transparent" class="shape-overlay" d="M313 133h90v90h-90z"/><path fill="transparent" d="M-87 133H3v90h-90zM313-167h90v90h-90zM-87-167H3v90h-90z"/></g><g fill="none" stroke-width="2"><g transform="matrix(1.5 0 0 1.5 189 206)" fill="currentColor"><path d="M54.9 7.3c-1.3-1-4.7-1.3-6-2.2-4.2-2.5-10-6-10.4 1.2a89.5 89.5 0 0 1-2 16A37.2 37.2 0 0 0 32 22c-2 0-3.8.1-5.5.4-.4-2.8-.8-6.7-1-12C25 3 19.3 6.6 15.2 9.2c-1.4.8-4.8 1.1-6 2-4.3 3.2-9.7 14-6 12.8 2.4-.7 6.5-4 8.3-5.4a58 58 0 0 1 5.6 7.9c-2.3 2.2-3.4 5-3.4 8.3 0 6.3-9.5 15.5-1 21.6 4 3 11.1 5.6 19.3 5.6 8.2 0 15.3-2.6 19.4-5.6 8.4-6.1-1-15.3-1-21.6 0-3.9-1.6-7.2-5-9.5a48 48 0 0 1 7.2-10.7c1.7 1.4 5.8 4.7 8.1 5.4 3.8 1-1.6-9.7-5.8-12.7M12.2 18l7-5.6c1.3 1.9 2.9 6.8 4 10.8-2.2.6-4 1.5-5.3 2.6-1.2-2-3-4.7-5.7-7.8m33.4 16.3c.9.9 1.6 2 1.9 3.3a11.2 11.2 0 0 1-.6 5.9l-.1.2a2.3 2.3 0 0 1-.4.4l-.7.4c-1.1.6-2.4.7-3.7.7-1.3 0-2.6-.3-3.9-.6a14 14 0 0 0 3.8 1.3 8 8 0 0 0 4.1-.4l.9-.4c2.4.2 4.3.9 4.9 2.3 2.1 5-7.8 13.4-19.8 13.4s-22-8.4-19.8-13.4c.6-1.4 2.5-2.1 4.9-2.3l.9.4a8 8 0 0 0 4 .4 14 14 0 0 0 3.9-1.3c-1.3.3-2.6.6-3.9.6-1.3 0-2.6-.1-3.7-.7a4.2 4.2 0 0 1-.7-.4 2.5 2.5 0 0 1-.3-.3h-.1v-.3a11.2 11.2 0 0 1-.7-2 9 9 0 0 1 0-3.9c.3-1.2 1-2.4 1.9-3.3.9-1 2-1.5 3.2-1.4a4.2 4.2 0 0 1 1.7.4 4.8 4.8 0 0 1 1.6 1.1c.9 1 1.5 2.3 1.8 3.7a7.7 7.7 0 0 0-.5-2.5 42 42 0 0 1 4.1-7c1.2-1.5 2.2-1.5 3.4 0 1.2 1.6 2.8 4.2 4.1 7a7.6 7.6 0 0 0-.5 2.5c.3-1.4 1-2.7 1.8-3.7a4.8 4.8 0 0 1 1.6-1 5.1 5.1 0 0 1 1.7-.5c1.2 0 2.3.5 3.2 1.4m-1-9.6a18 18 0 0 0-4.7-1.8 60 60 0 0 1 5-14.6l6.9 5.6c-4.3 5.1-6.3 8.9-7.2 10.8"/><ellipse cx="41.8" cy="39.5" rx="3.3" ry="4"/><ellipse cx="22.2" cy="39.5" rx="3.3" ry="4"/><path d="m33 49.1-.4-1.2c.7-.1 1.5-.4 2.3-.9 1.7-1 2.2-2.4 1.5-2.9-.8-.7-3.6-.7-4.4-.7-.8 0-3.6 0-4.4.7-.7.5-.2 1.8 1.5 3 .8.4 1.6.7 2.3.8L31 49a4 4 0 0 1-2 2.5 7.9 7.9 0 0 1-7.2.3 5.2 5.2 0 0 1-2.5-2.6c0 1.2.9 2.4 2 3.2l1.7.8a11 11 0 0 0 8.9 4.9 11 11 0 0 0 8.9-4.9l1.7-.8c1.1-.8 2-2 2-3.2-.5 1.1-1.4 2-2.6 2.5a7.8 7.8 0 0 1-7.2-.2A4 4 0 0 1 33 49m2.4 6h-6.6v-1.7a8.6 8.6 0 0 0 1.5-.6 6.2 6.2 0 0 0 1.8-1.5 6.2 6.2 0 0 0 1.8 1.5 8.2 8.2 0 0 0 1.5.6v1.7"/></g><g class="clone" transform="matrix(1.5 0 0 1.5 -211 206)" fill="currentColor"><path d="M54.9 7.3c-1.3-1-4.7-1.3-6-2.2-4.2-2.5-10-6-10.4 1.2a89.5 89.5 0 0 1-2 16A37.2 37.2 0 0 0 32 22c-2 0-3.8.1-5.5.4-.4-2.8-.8-6.7-1-12C25 3 19.3 6.6 15.2 9.2c-1.4.8-4.8 1.1-6 2-4.3 3.2-9.7 14-6 12.8 2.4-.7 6.5-4 8.3-5.4a58 58 0 0 1 5.6 7.9c-2.3 2.2-3.4 5-3.4 8.3 0 6.3-9.5 15.5-1 21.6 4 3 11.1 5.6 19.3 5.6 8.2 0 15.3-2.6 19.4-5.6 8.4-6.1-1-15.3-1-21.6 0-3.9-1.6-7.2-5-9.5a48 48 0 0 1 7.2-10.7c1.7 1.4 5.8 4.7 8.1 5.4 3.8 1-1.6-9.7-5.8-12.7M12.2 18l7-5.6c1.3 1.9 2.9 6.8 4 10.8-2.2.6-4 1.5-5.3 2.6-1.2-2-3-4.7-5.7-7.8m33.4 16.3c.9.9 1.6 2 1.9 3.3a11.2 11.2 0 0 1-.6 5.9l-.1.2a2.3 2.3 0 0 1-.4.4l-.7.4c-1.1.6-2.4.7-3.7.7-1.3 0-2.6-.3-3.9-.6a14 14 0 0 0 3.8 1.3 8 8 0 0 0 4.1-.4l.9-.4c2.4.2 4.3.9 4.9 2.3 2.1 5-7.8 13.4-19.8 13.4s-22-8.4-19.8-13.4c.6-1.4 2.5-2.1 4.9-2.3l.9.4a8 8 0 0 0 4 .4 14 14 0 0 0 3.9-1.3c-1.3.3-2.6.6-3.9.6-1.3 0-2.6-.1-3.7-.7a4.2 4.2 0 0 1-.7-.4 2.5 2.5 0 0 1-.3-.3h-.1v-.3a11.2 11.2 0 0 1-.7-2 9 9 0 0 1 0-3.9c.3-1.2 1-2.4 1.9-3.3.9-1 2-1.5 3.2-1.4a4.2 4.2 0 0 1 1.7.4 4.8 4.8 0 0 1 1.6 1.1c.9 1 1.5 2.3 1.8 3.7a7.7 7.7 0 0 0-.5-2.5 42 42 0 0 1 4.1-7c1.2-1.5 2.2-1.5 3.4 0 1.2 1.6 2.8 4.2 4.1 7a7.6 7.6 0 0 0-.5 2.5c.3-1.4 1-2.7 1.8-3.7a4.8 4.8 0 0 1 1.6-1 5.1 5.1 0 0 1 1.7-.5c1.2 0 2.3.5 3.2 1.4m-1-9.6a18 18 0 0 0-4.7-1.8 60 60 0 0 1 5-14.6l6.9 5.6c-4.3 5.1-6.3 8.9-7.2 10.8"/><ellipse cx="41.8" cy="39.5" rx="3.3" ry="4"/><ellipse cx="22.2" cy="39.5" rx="3.3" ry="4"/><path d="m33 49.1-.4-1.2c.7-.1 1.5-.4 2.3-.9 1.7-1 2.2-2.4 1.5-2.9-.8-.7-3.6-.7-4.4-.7-.8 0-3.6 0-4.4.7-.7.5-.2 1.8 1.5 3 .8.4 1.6.7 2.3.8L31 49a4 4 0 0 1-2 2.5 7.9 7.9 0 0 1-7.2.3 5.2 5.2 0 0 1-2.5-2.6c0 1.2.9 2.4 2 3.2l1.7.8a11 11 0 0 0 8.9 4.9 11 11 0 0 0 8.9-4.9l1.7-.8c1.1-.8 2-2 2-3.2-.5 1.1-1.4 2-2.6 2.5a7.8 7.8 0 0 1-7.2-.2A4 4 0 0 1 33 49m2.4 6h-6.6v-1.7a8.6 8.6 0 0 0 1.5-.6 6.2 6.2 0 0 0 1.8-1.5 6.2 6.2 0 0 0 1.8 1.5 8.2 8.2 0 0 0 1.5.6v1.7"/></g><g class="clone" transform="matrix(1.5 0 0 1.5 189 -94)" fill="currentColor"><path d="M54.9 7.3c-1.3-1-4.7-1.3-6-2.2-4.2-2.5-10-6-10.4 1.2a89.5 89.5 0 0 1-2 16A37.2 37.2 0 0 0 32 22c-2 0-3.8.1-5.5.4-.4-2.8-.8-6.7-1-12C25 3 19.3 6.6 15.2 9.2c-1.4.8-4.8 1.1-6 2-4.3 3.2-9.7 14-6 12.8 2.4-.7 6.5-4 8.3-5.4a58 58 0 0 1 5.6 7.9c-2.3 2.2-3.4 5-3.4 8.3 0 6.3-9.5 15.5-1 21.6 4 3 11.1 5.6 19.3 5.6 8.2 0 15.3-2.6 19.4-5.6 8.4-6.1-1-15.3-1-21.6 0-3.9-1.6-7.2-5-9.5a48 48 0 0 1 7.2-10.7c1.7 1.4 5.8 4.7 8.1 5.4 3.8 1-1.6-9.7-5.8-12.7M12.2 18l7-5.6c1.3 1.9 2.9 6.8 4 10.8-2.2.6-4 1.5-5.3 2.6-1.2-2-3-4.7-5.7-7.8m33.4 16.3c.9.9 1.6 2 1.9 3.3a11.2 11.2 0 0 1-.6 5.9l-.1.2a2.3 2.3 0 0 1-.4.4l-.7.4c-1.1.6-2.4.7-3.7.7-1.3 0-2.6-.3-3.9-.6a14 14 0 0 0 3.8 1.3 8 8 0 0 0 4.1-.4l.9-.4c2.4.2 4.3.9 4.9 2.3 2.1 5-7.8 13.4-19.8 13.4s-22-8.4-19.8-13.4c.6-1.4 2.5-2.1 4.9-2.3l.9.4a8 8 0 0 0 4 .4 14 14 0 0 0 3.9-1.3c-1.3.3-2.6.6-3.9.6-1.3 0-2.6-.1-3.7-.7a4.2 4.2 0 0 1-.7-.4 2.5 2.5 0 0 1-.3-.3h-.1v-.3a11.2 11.2 0 0 1-.7-2 9 9 0 0 1 0-3.9c.3-1.2 1-2.4 1.9-3.3.9-1 2-1.5 3.2-1.4a4.2 4.2 0 0 1 1.7.4 4.8 4.8 0 0 1 1.6 1.1c.9 1 1.5 2.3 1.8 3.7a7.7 7.7 0 0 0-.5-2.5 42 42 0 0 1 4.1-7c1.2-1.5 2.2-1.5 3.4 0 1.2 1.6 2.8 4.2 4.1 7a7.6 7.6 0 0 0-.5 2.5c.3-1.4 1-2.7 1.8-3.7a4.8 4.8 0 0 1 1.6-1 5.1 5.1 0 0 1 1.7-.5c1.2 0 2.3.5 3.2 1.4m-1-9.6a18 18 0 0 0-4.7-1.8 60 60 0 0 1 5-14.6l6.9 5.6c-4.3 5.1-6.3 8.9-7.2 10.8"/><ellipse cx="41.8" cy="39.5" rx="3.3" ry="4"/><ellipse cx="22.2" cy="39.5" rx="3.3" ry="4"/><path d="m33 49.1-.4-1.2c.7-.1 1.5-.4 2.3-.9 1.7-1 2.2-2.4 1.5-2.9-.8-.7-3.6-.7-4.4-.7-.8 0-3.6 0-4.4.7-.7.5-.2 1.8 1.5 3 .8.4 1.6.7 2.3.8L31 49a4 4 0 0 1-2 2.5 7.9 7.9 0 0 1-7.2.3 5.2 5.2 0 0 1-2.5-2.6c0 1.2.9 2.4 2 3.2l1.7.8a11 11 0 0 0 8.9 4.9 11 11 0 0 0 8.9-4.9l1.7-.8c1.1-.8 2-2 2-3.2-.5 1.1-1.4 2-2.6 2.5a7.8 7.8 0 0 1-7.2-.2A4 4 0 0 1 33 49m2.4 6h-6.6v-1.7a8.6 8.6 0 0 0 1.5-.6 6.2 6.2 0 0 0 1.8-1.5 6.2 6.2 0 0 0 1.8 1.5 8.2 8.2 0 0 0 1.5.6v1.7"/></g><g class="clone" transform="matrix(1.5 0 0 1.5 -211 -94)" fill="currentColor"><path d="M54.9 7.3c-1.3-1-4.7-1.3-6-2.2-4.2-2.5-10-6-10.4 1.2a89.5 89.5 0 0 1-2 16A37.2 37.2 0 0 0 32 22c-2 0-3.8.1-5.5.4-.4-2.8-.8-6.7-1-12C25 3 19.3 6.6 15.2 9.2c-1.4.8-4.8 1.1-6 2-4.3 3.2-9.7 14-6 12.8 2.4-.7 6.5-4 8.3-5.4a58 58 0 0 1 5.6 7.9c-2.3 2.2-3.4 5-3.4 8.3 0 6.3-9.5 15.5-1 21.6 4 3 11.1 5.6 19.3 5.6 8.2 0 15.3-2.6 19.4-5.6 8.4-6.1-1-15.3-1-21.6 0-3.9-1.6-7.2-5-9.5a48 48 0 0 1 7.2-10.7c1.7 1.4 5.8 4.7 8.1 5.4 3.8 1-1.6-9.7-5.8-12.7M12.2 18l7-5.6c1.3 1.9 2.9 6.8 4 10.8-2.2.6-4 1.5-5.3 2.6-1.2-2-3-4.7-5.7-7.8m33.4 16.3c.9.9 1.6 2 1.9 3.3a11.2 11.2 0 0 1-.6 5.9l-.1.2a2.3 2.3 0 0 1-.4.4l-.7.4c-1.1.6-2.4.7-3.7.7-1.3 0-2.6-.3-3.9-.6a14 14 0 0 0 3.8 1.3 8 8 0 0 0 4.1-.4l.9-.4c2.4.2 4.3.9 4.9 2.3 2.1 5-7.8 13.4-19.8 13.4s-22-8.4-19.8-13.4c.6-1.4 2.5-2.1 4.9-2.3l.9.4a8 8 0 0 0 4 .4 14 14 0 0 0 3.9-1.3c-1.3.3-2.6.6-3.9.6-1.3 0-2.6-.1-3.7-.7a4.2 4.2 0 0 1-.7-.4 2.5 2.5 0 0 1-.3-.3h-.1v-.3a11.2 11.2 0 0 1-.7-2 9 9 0 0 1 0-3.9c.3-1.2 1-2.4 1.9-3.3.9-1 2-1.5 3.2-1.4a4.2 4.2 0 0 1 1.7.4 4.8 4.8 0 0 1 1.6 1.1c.9 1 1.5 2.3 1.8 3.7a7.7 7.7 0 0 0-.5-2.5 42 42 0 0 1 4.1-7c1.2-1.5 2.2-1.5 3.4 0 1.2 1.6 2.8 4.2 4.1 7a7.6 7.6 0 0 0-.5 2.5c.3-1.4 1-2.7 1.8-3.7a4.8 4.8 0 0 1 1.6-1 5.1 5.1 0 0 1 1.7-.5c1.2 0 2.3.5 3.2 1.4m-1-9.6a18 18 0 0 0-4.7-1.8 60 60 0 0 1 5-14.6l6.9 5.6c-4.3 5.1-6.3 8.9-7.2 10.8"/><ellipse cx="41.8" cy="39.5" rx="3.3" ry="4"/><ellipse cx="22.2" cy="39.5" rx="3.3" ry="4"/><path d="m33 49.1-.4-1.2c.7-.1 1.5-.4 2.3-.9 1.7-1 2.2-2.4 1.5-2.9-.8-.7-3.6-.7-4.4-.7-.8 0-3.6 0-4.4.7-.7.5-.2 1.8 1.5 3 .8.4 1.6.7 2.3.8L31 49a4 4 0 0 1-2 2.5 7.9 7.9 0 0 1-7.2.3 5.2 5.2 0 0 1-2.5-2.6c0 1.2.9 2.4 2 3.2l1.7.8a11 11 0 0 0 8.9 4.9 11 11 0 0 0 8.9-4.9l1.7-.8c1.1-.8 2-2 2-3.2-.5 1.1-1.4 2-2.6 2.5a7.8 7.8 0 0 1-7.2-.2A4 4 0 0 1 33 49m2.4 6h-6.6v-1.7a8.6 8.6 0 0 0 1.5-.6 6.2 6.2 0 0 0 1.8-1.5 6.2 6.2 0 0 0 1.8 1.5 8.2 8.2 0 0 0 1.5.6v1.7"/></g><path fill="transparent" class="shape-overlay" d="M192 209h90v90h-90z"/><path fill="transparent" d="M-208 209h90v90h-90zM192-91h90v90h-90zM-208-91h90v90h-90z"/></g></svg>